<svg id="svg" version="1.1" xmlns="http://www.w3.org/2000/svg" xmlns:xlink="http://www.w3.org/1999/xlink" width="400" height="400" viewBox="0, 0, 400,400"><g id="svgg"><path id="path0" d="M183.600 31.972 C 183.270 32.164,182.460 32.384,181.800 32.461 C 181.140 32.537,180.360 32.827,180.068 33.104 C 179.775 33.381,179.389 33.517,179.210 33.406 C 179.030 33.295,178.788 33.455,178.670 33.761 C 178.553 34.067,177.724 34.640,176.828 35.035 C 175.933 35.431,175.200 35.899,175.200 36.077 C 175.200 36.255,174.980 36.400,174.710 36.400 C 174.132 36.400,171.600 39.150,171.600 39.778 C 171.600 40.016,171.150 40.548,170.600 40.961 C 170.050 41.374,169.600 42.047,169.600 42.456 C 169.600 42.865,169.420 43.200,169.200 43.200 C 168.980 43.200,168.800 43.740,168.800 44.400 C 168.800 45.060,168.661 45.600,168.491 45.600 C 168.036 45.600,167.211 49.021,166.948 52.000 C 166.822 53.430,166.542 54.710,166.325 54.845 C 166.109 54.979,165.841 55.967,165.729 57.041 C 165.617 58.114,165.362 59.297,165.163 59.670 C 164.963 60.042,164.800 60.809,164.800 61.374 C 164.800 61.938,164.633 62.400,164.429 62.400 C 164.225 62.400,163.775 62.940,163.429 63.600 C 163.083 64.260,162.512 65.350,162.160 66.022 C 161.808 66.694,161.178 67.457,160.760 67.718 C 160.342 67.979,160.000 68.419,160.000 68.696 C 160.000 68.973,159.812 69.200,159.583 69.200 C 159.353 69.200,158.680 69.650,158.087 70.200 C 157.493 70.750,156.781 71.200,156.504 71.200 C 156.227 71.200,156.000 71.351,156.000 71.536 C 156.000 71.836,154.103 72.887,153.600 72.865 C 153.490 72.861,153.256 73.114,153.080 73.428 C 152.904 73.743,152.544 74.001,152.280 74.002 C 152.016 74.002,150.734 74.534,149.431 75.183 C 148.128 75.831,146.913 76.270,146.731 76.157 C 146.549 76.045,146.400 76.143,146.400 76.376 C 146.400 76.609,145.806 76.800,145.080 76.800 C 144.354 76.800,143.542 77.018,143.275 77.285 C 142.524 78.036,131.668 78.106,130.514 77.367 C 130.027 77.055,129.172 76.800,128.614 76.800 C 128.056 76.800,127.600 76.609,127.600 76.376 C 127.600 76.143,127.443 76.050,127.252 76.168 C 127.060 76.287,126.492 76.027,125.990 75.592 C 125.488 75.156,124.835 74.800,124.539 74.800 C 124.242 74.800,124.000 74.620,124.000 74.400 C 124.000 74.180,123.730 74.000,123.400 74.000 C 123.070 74.000,122.800 73.820,122.800 73.600 C 122.800 73.380,122.440 73.200,122.000 73.200 C 121.560 73.200,121.200 72.951,121.200 72.646 C 121.200 72.341,120.578 71.796,119.817 71.435 C 119.056 71.074,118.324 70.600,118.189 70.383 C 118.055 70.165,117.796 70.079,117.614 70.191 C 117.433 70.304,117.181 70.126,117.054 69.798 C 116.928 69.469,116.474 69.200,116.046 69.200 C 115.617 69.200,115.207 69.065,115.133 68.900 C 114.923 68.427,112.544 67.200,111.838 67.200 C 111.487 67.200,111.200 67.001,111.200 66.757 C 111.200 66.514,110.936 66.416,110.613 66.540 C 110.290 66.664,109.941 66.628,109.837 66.461 C 109.433 65.806,99.676 66.226,99.164 66.920 C 99.034 67.096,98.539 67.269,98.064 67.305 C 97.589 67.341,97.200 67.523,97.200 67.709 C 97.200 67.895,97.032 67.944,96.828 67.817 C 96.623 67.691,96.340 67.773,96.200 68.000 C 96.060 68.227,95.779 68.311,95.577 68.186 C 95.375 68.061,95.316 68.238,95.447 68.579 C 95.625 69.042,95.421 69.200,94.643 69.200 C 94.001 69.200,93.600 69.422,93.600 69.777 C 93.600 70.461,92.021 71.660,91.525 71.354 C 91.335 71.236,91.230 71.289,91.290 71.470 C 91.351 71.652,91.260 71.840,91.089 71.889 C 90.918 71.938,89.858 72.883,88.735 73.989 C 87.611 75.095,86.539 76.000,86.353 76.000 C 86.167 76.000,85.902 76.450,85.764 77.000 C 85.621 77.572,85.225 78.000,84.839 78.000 C 83.911 78.000,80.293 81.894,80.648 82.512 C 80.802 82.780,80.786 82.871,80.612 82.714 C 80.090 82.243,78.800 83.169,78.800 84.014 C 78.800 84.690,78.472 84.928,77.600 84.885 C 77.490 84.879,76.545 85.953,75.500 87.270 C 74.455 88.587,73.589 89.516,73.575 89.333 C 73.561 89.150,73.382 89.417,73.178 89.926 C 72.974 90.435,72.670 90.769,72.503 90.668 C 71.997 90.361,71.200 91.420,71.200 92.400 C 71.200 92.620,70.930 92.800,70.600 92.800 C 70.270 92.800,70.038 92.935,70.085 93.100 C 70.223 93.589,69.046 95.200,68.550 95.200 C 68.090 95.200,67.671 96.160,67.332 97.993 C 67.231 98.538,66.955 99.104,66.720 99.249 C 66.080 99.645,65.773 104.481,66.139 108.400 C 66.344 110.586,69.225 117.042,69.759 116.508 C 69.891 116.375,70.000 116.646,70.000 117.110 C 70.000 117.573,70.175 118.061,70.389 118.193 C 70.603 118.326,71.074 119.056,71.435 119.817 C 71.796 120.578,72.341 121.200,72.646 121.200 C 72.951 121.200,73.200 121.560,73.200 122.000 C 73.200 122.440,73.380 122.800,73.600 122.800 C 73.820 122.800,74.000 123.070,74.000 123.400 C 74.000 123.730,74.168 124.000,74.373 124.000 C 74.578 124.000,74.872 124.397,75.026 124.881 C 75.180 125.366,75.553 126.011,75.856 126.314 C 76.159 126.617,76.305 127.030,76.180 127.232 C 76.055 127.435,76.143 127.600,76.376 127.600 C 76.609 127.600,76.800 128.056,76.800 128.614 C 76.800 129.172,77.055 130.027,77.367 130.514 C 78.106 131.668,78.036 142.524,77.285 143.275 C 77.018 143.542,76.800 144.354,76.800 145.080 C 76.800 145.806,76.609 146.400,76.376 146.400 C 76.143 146.400,76.045 146.549,76.157 146.731 C 76.270 146.913,75.831 148.128,75.183 149.431 C 74.534 150.734,74.002 152.016,74.002 152.280 C 74.001 152.544,73.714 152.920,73.364 153.116 C 73.014 153.312,72.761 153.546,72.801 153.636 C 72.948 153.968,71.861 156.000,71.536 156.000 C 71.351 156.000,71.200 156.227,71.200 156.504 C 71.200 156.781,70.750 157.493,70.200 158.087 C 69.650 158.680,69.200 159.353,69.200 159.583 C 69.200 159.812,68.973 160.000,68.696 160.000 C 68.419 160.000,67.979 160.342,67.718 160.760 C 67.457 161.178,66.694 161.808,66.022 162.160 C 65.350 162.512,64.260 163.083,63.600 163.429 C 62.940 163.775,62.400 164.225,62.400 164.429 C 62.400 164.633,61.938 164.800,61.374 164.800 C 60.809 164.800,60.042 164.963,59.670 165.163 C 59.297 165.362,58.114 165.617,57.041 165.729 C 55.967 165.841,54.979 166.107,54.845 166.321 C 54.710 166.534,53.430 166.805,52.000 166.922 C 48.800 167.184,45.600 167.939,45.600 168.432 C 45.600 168.635,45.060 168.800,44.400 168.800 C 43.740 168.800,43.200 168.980,43.200 169.200 C 43.200 169.420,42.844 169.600,42.409 169.600 C 41.974 169.600,41.324 170.050,40.963 170.600 C 40.603 171.150,40.093 171.600,39.829 171.600 C 38.986 171.600,36.347 174.466,35.022 176.818 C 34.595 177.578,34.010 178.438,33.722 178.729 C 33.435 179.019,33.200 179.514,33.200 179.829 C 33.200 180.143,33.020 180.400,32.800 180.400 C 32.580 180.400,32.400 181.300,32.400 182.400 C 32.400 183.500,32.229 184.400,32.019 184.400 C 31.490 184.400,31.510 214.409,32.039 215.047 C 32.307 215.370,32.300 215.615,32.019 215.788 C 31.485 216.118,31.469 217.600,32.000 217.600 C 32.220 217.600,32.400 218.500,32.400 219.600 C 32.400 220.700,32.580 221.600,32.800 221.600 C 33.020 221.600,33.200 221.857,33.200 222.171 C 33.200 222.486,33.464 223.006,33.786 223.329 C 34.108 223.651,34.423 224.139,34.486 224.414 C 34.549 224.688,35.050 225.412,35.600 226.023 C 36.150 226.633,37.140 227.780,37.800 228.571 C 38.460 229.362,39.318 230.110,39.706 230.233 C 40.094 230.357,40.324 230.599,40.217 230.772 C 40.110 230.945,40.693 231.427,41.511 231.843 C 42.330 232.259,43.090 232.690,43.200 232.800 C 43.310 232.910,43.837 233.062,44.371 233.137 C 44.905 233.213,45.765 233.552,46.283 233.891 C 46.801 234.231,47.332 234.401,47.463 234.270 C 47.594 234.139,48.174 234.267,48.751 234.554 C 49.328 234.842,50.879 235.120,52.197 235.172 C 53.515 235.224,54.699 235.437,54.827 235.644 C 54.955 235.851,55.997 236.132,57.142 236.268 C 58.287 236.403,59.319 236.669,59.435 236.857 C 59.552 237.046,60.267 237.200,61.024 237.200 C 61.781 237.200,62.400 237.380,62.400 237.600 C 62.400 237.820,62.592 238.000,62.827 238.000 C 63.061 238.000,63.843 238.450,64.564 239.000 C 65.286 239.550,66.039 240.005,66.238 240.011 C 66.886 240.030,69.821 242.964,70.620 244.393 C 71.371 245.734,71.588 246.044,72.716 247.386 C 72.999 247.724,73.107 248.000,72.954 248.000 C 72.801 248.000,72.952 248.315,73.289 248.700 C 73.626 249.085,74.140 250.120,74.432 251.000 C 74.724 251.880,75.196 252.800,75.481 253.044 C 75.766 253.288,76.038 253.950,76.085 254.515 C 76.131 255.080,76.312 255.455,76.485 255.348 C 76.658 255.240,76.800 255.847,76.800 256.696 C 76.800 257.545,77.025 258.465,77.300 258.740 C 78.043 259.483,78.084 270.237,77.349 271.680 C 77.047 272.274,76.800 273.140,76.800 273.604 C 76.800 274.078,76.620 274.336,76.390 274.194 C 76.165 274.055,76.006 274.089,76.037 274.270 C 76.231 275.383,75.952 276.944,75.646 276.461 C 75.396 276.066,75.193 276.246,74.880 277.142 C 74.647 277.812,74.083 278.679,73.628 279.069 C 73.172 279.459,72.800 280.008,72.800 280.289 C 72.800 280.570,72.620 280.800,72.400 280.800 C 72.180 280.800,72.000 281.081,72.000 281.424 C 72.000 281.767,71.820 281.936,71.600 281.800 C 71.380 281.664,71.200 281.883,71.200 282.287 C 71.200 282.692,70.825 283.343,70.367 283.736 C 69.900 284.135,69.634 284.712,69.762 285.045 C 69.891 285.382,69.819 285.535,69.595 285.397 C 69.378 285.263,69.200 285.437,69.200 285.784 C 69.200 286.132,68.782 287.087,68.271 287.908 C 66.784 290.294,66.452 291.250,66.147 294.000 C 65.774 297.374,66.122 302.381,66.757 302.773 C 66.972 302.906,67.215 303.520,67.298 304.137 C 67.381 304.754,67.707 305.423,68.024 305.623 C 68.341 305.824,68.444 305.991,68.253 305.994 C 68.061 305.997,68.460 306.568,69.138 307.261 C 69.816 307.955,70.279 308.673,70.165 308.857 C 70.051 309.040,70.238 309.084,70.579 308.953 C 70.960 308.806,71.200 308.933,71.200 309.282 C 71.200 309.594,71.605 310.285,72.100 310.817 C 72.595 311.349,72.955 311.923,72.900 312.092 C 72.845 312.262,73.070 312.400,73.400 312.400 C 73.730 312.400,74.000 312.567,74.000 312.771 C 74.000 313.254,77.164 316.531,78.200 317.120 C 78.640 317.371,78.777 317.581,78.504 317.588 C 77.823 317.605,79.206 319.200,79.901 319.200 C 80.189 319.200,80.537 319.515,80.673 319.900 C 81.080 321.046,82.074 322.000,82.862 322.000 C 83.326 322.000,83.600 322.288,83.600 322.776 C 83.600 323.203,83.808 323.681,84.062 323.838 C 84.358 324.021,84.415 323.947,84.220 323.632 C 83.998 323.273,84.142 323.282,84.758 323.667 C 85.221 323.956,85.600 324.306,85.600 324.445 C 85.600 324.877,89.552 328.800,89.988 328.800 C 90.214 328.800,90.400 329.081,90.400 329.424 C 90.400 329.767,90.580 329.936,90.800 329.800 C 91.020 329.664,91.214 329.878,91.232 330.276 C 91.251 330.713,91.344 330.798,91.468 330.490 C 91.604 330.153,92.113 330.460,92.965 331.390 C 93.676 332.165,94.516 332.800,94.832 332.800 C 95.149 332.800,95.649 333.186,95.944 333.659 C 96.377 334.352,96.548 334.410,96.834 333.959 C 97.128 333.494,97.189 333.504,97.194 334.015 C 97.197 334.356,97.585 334.659,98.064 334.695 C 98.539 334.731,99.053 334.962,99.205 335.208 C 99.532 335.738,110.247 335.675,111.200 335.139 C 111.758 334.824,113.948 333.984,114.400 333.912 C 114.510 333.894,114.780 333.649,115.000 333.367 C 115.220 333.086,115.760 332.798,116.200 332.728 C 116.640 332.657,117.448 332.195,117.996 331.700 C 118.544 331.205,119.219 330.800,119.496 330.800 C 119.773 330.800,120.000 330.620,120.000 330.400 C 120.000 330.180,120.270 330.000,120.600 330.000 C 120.930 330.000,121.200 329.764,121.200 329.475 C 121.200 329.186,121.830 328.702,122.600 328.400 C 123.370 328.098,124.000 327.704,124.000 327.525 C 124.000 327.346,124.270 327.200,124.600 327.200 C 124.930 327.200,125.200 327.009,125.200 326.776 C 125.200 326.543,125.380 326.464,125.600 326.600 C 125.820 326.736,126.000 326.657,126.000 326.424 C 126.000 326.191,126.371 326.000,126.824 326.000 C 127.277 326.000,127.536 325.820,127.400 325.600 C 127.254 325.363,127.713 325.200,128.527 325.200 C 129.283 325.200,130.126 324.930,130.400 324.600 C 131.141 323.707,143.115 323.713,143.458 324.607 C 143.586 324.941,143.896 325.190,144.146 325.160 C 145.460 325.002,146.819 325.246,146.600 325.600 C 146.464 325.820,146.726 326.000,147.182 326.000 C 147.936 326.000,148.700 326.300,150.400 327.265 C 150.730 327.452,151.270 327.710,151.600 327.839 C 152.870 328.334,154.220 329.016,154.686 329.400 C 154.953 329.620,155.441 330.025,155.769 330.300 C 156.098 330.575,156.480 330.800,156.619 330.800 C 157.121 330.800,159.983 333.010,159.991 333.404 C 159.996 333.626,160.342 334.021,160.760 334.282 C 161.178 334.543,161.775 335.261,162.086 335.878 C 163.159 338.003,163.801 339.001,164.300 339.320 C 164.575 339.496,164.800 340.225,164.800 340.940 C 164.800 341.655,164.962 342.411,165.160 342.620 C 165.358 342.829,165.605 343.892,165.708 344.983 C 165.812 346.073,166.100 347.033,166.348 347.116 C 166.617 347.206,166.800 348.237,166.800 349.660 C 166.800 350.976,166.976 352.381,167.190 352.782 C 167.405 353.183,167.624 354.075,167.676 354.765 C 167.739 355.592,167.946 355.953,168.281 355.824 C 168.561 355.717,168.771 355.757,168.748 355.914 C 168.576 357.070,168.868 358.805,169.200 358.600 C 169.425 358.461,169.600 358.780,169.600 359.327 C 169.600 360.390,170.477 361.372,171.001 360.897 C 171.181 360.733,171.201 360.822,171.045 361.093 C 170.413 362.192,177.863 368.400,179.814 368.400 C 180.136 368.400,180.400 368.670,180.400 369.000 C 180.400 369.452,180.885 369.600,182.367 369.600 C 183.582 369.600,184.399 369.791,184.504 370.100 C 184.638 370.491,184.950 370.499,185.937 370.135 C 186.632 369.879,187.200 369.829,187.200 370.024 C 187.200 370.223,193.249 370.378,201.000 370.378 C 209.678 370.378,214.800 370.234,214.800 369.989 C 214.800 369.775,214.991 369.600,215.224 369.600 C 215.457 369.600,215.536 369.780,215.400 370.000 C 215.264 370.220,215.444 370.400,215.800 370.400 C 216.211 370.400,216.338 370.218,216.147 369.900 C 215.974 369.612,216.161 369.654,216.588 370.000 C 217.154 370.458,217.370 370.481,217.498 370.100 C 217.603 369.791,218.416 369.600,219.633 369.600 C 221.115 369.600,221.600 369.452,221.600 369.000 C 221.600 368.670,221.860 368.400,222.177 368.400 C 222.794 368.400,225.407 366.995,226.400 366.129 C 229.197 363.692,231.182 361.489,230.947 361.080 C 230.796 360.816,230.818 360.732,230.996 360.894 C 231.413 361.271,232.371 360.020,232.387 359.076 C 232.394 358.678,232.535 358.436,232.700 358.538 C 232.865 358.640,233.028 358.255,233.063 357.684 C 233.097 357.112,233.409 356.436,233.756 356.182 C 234.104 355.929,234.302 355.635,234.197 355.531 C 234.093 355.426,234.276 354.310,234.604 353.051 C 234.932 351.791,235.200 349.975,235.200 349.014 C 235.200 348.053,235.371 347.207,235.581 347.133 C 235.790 347.060,236.141 346.010,236.360 344.800 C 237.025 341.137,237.248 340.255,237.855 338.900 C 238.176 338.185,238.589 337.600,238.773 337.600 C 238.958 337.600,239.410 336.965,239.779 336.188 C 240.147 335.412,240.798 334.558,241.224 334.292 C 241.651 334.026,242.000 333.658,242.000 333.475 C 242.000 333.106,243.020 332.000,243.360 332.000 C 243.569 332.000,247.193 329.607,247.600 329.200 C 248.066 328.734,249.633 328.000,250.161 328.000 C 250.476 328.000,250.794 327.818,250.868 327.596 C 250.942 327.374,251.439 327.108,251.972 327.005 C 252.505 326.903,253.055 326.635,253.193 326.411 C 253.332 326.187,253.917 325.965,254.494 325.917 C 255.070 325.869,255.455 325.688,255.348 325.515 C 255.169 325.226,255.433 325.171,257.500 325.064 C 257.885 325.044,258.344 324.796,258.520 324.514 C 259.022 323.708,270.925 323.786,271.600 324.600 C 271.874 324.930,272.526 325.200,273.049 325.200 C 273.572 325.200,274.000 325.380,274.000 325.600 C 274.000 325.820,274.458 326.000,275.017 326.000 C 275.576 326.000,276.251 326.183,276.517 326.407 C 278.459 328.045,278.945 328.358,279.252 328.168 C 279.443 328.050,279.600 328.143,279.600 328.376 C 279.600 328.609,279.870 328.800,280.200 328.800 C 280.530 328.800,280.800 329.081,280.800 329.424 C 280.800 329.767,280.969 329.943,281.175 329.815 C 281.382 329.688,281.697 329.812,281.875 330.092 C 282.369 330.865,283.864 332.050,284.465 332.144 C 284.759 332.191,285.613 332.537,286.361 332.914 C 287.110 333.291,287.943 333.600,288.212 333.600 C 288.482 333.600,288.926 333.870,289.200 334.200 C 289.474 334.530,290.126 334.800,290.649 334.800 C 291.172 334.800,291.600 334.980,291.600 335.200 C 291.600 335.448,293.733 335.600,297.200 335.600 C 300.667 335.600,302.800 335.448,302.800 335.200 C 302.800 334.980,303.228 334.800,303.751 334.800 C 304.274 334.800,304.926 334.530,305.200 334.200 C 305.474 333.870,305.957 333.600,306.273 333.600 C 306.589 333.600,306.736 333.420,306.600 333.200 C 306.464 332.980,306.543 332.778,306.776 332.750 C 307.840 332.624,307.487 332.889,311.371 329.300 C 312.144 328.585,312.858 328.000,312.957 328.000 C 313.314 328.000,316.400 324.760,316.400 324.385 C 316.400 324.173,316.805 323.997,317.300 323.994 C 318.028 323.989,318.085 323.914,317.600 323.600 C 317.087 323.269,317.102 323.211,317.700 323.206 C 318.085 323.203,318.400 323.014,318.400 322.787 C 318.400 322.561,318.707 322.257,319.082 322.113 C 320.226 321.674,321.200 320.661,321.200 319.911 C 321.200 319.480,321.498 319.200,321.957 319.200 C 322.654 319.200,323.414 318.211,323.264 317.500 C 323.229 317.335,323.460 317.200,323.777 317.200 C 324.095 317.200,324.590 316.865,324.877 316.456 C 325.965 314.906,329.351 311.404,329.669 311.500 C 329.851 311.555,330.000 311.369,330.000 311.086 C 330.000 310.581,331.131 309.074,333.291 306.699 C 333.892 306.039,334.497 304.890,334.637 304.145 C 334.776 303.401,335.050 302.693,335.245 302.572 C 335.440 302.451,335.600 301.319,335.600 300.056 C 335.600 298.778,335.817 297.543,336.090 297.270 C 336.467 296.893,336.472 296.607,336.112 296.030 C 335.854 295.618,335.602 294.317,335.551 293.140 C 335.493 291.792,335.114 290.379,334.529 289.323 C 334.018 288.401,333.597 287.321,333.594 286.923 C 333.589 286.310,333.529 286.291,333.200 286.800 C 332.897 287.269,332.811 287.164,332.806 286.320 C 332.803 285.718,332.490 285.059,332.100 284.832 C 331.715 284.608,331.548 284.419,331.729 284.412 C 331.909 284.405,331.774 284.117,331.429 283.771 C 331.083 283.426,330.797 282.751,330.794 282.271 C 330.789 281.562,330.716 281.512,330.400 282.000 C 330.086 282.485,330.011 282.428,330.006 281.700 C 330.003 281.169,329.754 280.800,329.400 280.800 C 329.067 280.800,328.800 280.444,328.800 280.000 C 328.800 279.560,328.620 279.200,328.400 279.200 C 328.180 279.200,328.000 278.930,328.000 278.600 C 328.000 278.270,327.820 278.000,327.600 278.000 C 327.380 278.000,327.200 277.749,327.200 277.443 C 327.200 277.136,326.930 276.782,326.600 276.655 C 326.270 276.529,326.000 275.969,326.000 275.413 C 326.000 274.856,325.820 274.400,325.600 274.400 C 325.380 274.400,325.200 273.882,325.200 273.249 C 325.200 272.616,324.930 271.874,324.600 271.600 C 323.786 270.925,323.708 259.022,324.514 258.520 C 324.796 258.344,325.044 257.885,325.064 257.500 C 325.171 255.433,325.226 255.169,325.515 255.348 C 325.688 255.455,325.867 255.093,325.913 254.545 C 325.958 253.996,326.256 253.287,326.574 252.969 C 326.892 252.651,327.083 252.033,326.999 251.595 C 326.903 251.098,327.062 250.800,327.423 250.800 C 327.740 250.800,328.000 250.528,328.000 250.195 C 328.000 249.639,328.722 248.078,329.200 247.600 C 329.607 247.193,332.000 243.569,332.000 243.360 C 332.000 243.020,333.106 242.000,333.475 242.000 C 333.658 242.000,334.026 241.651,334.292 241.224 C 334.558 240.798,335.412 240.147,336.188 239.779 C 336.965 239.410,337.600 238.958,337.600 238.773 C 337.600 238.589,338.185 238.176,338.900 237.855 C 340.255 237.248,341.137 237.025,344.800 236.360 C 346.010 236.141,347.060 235.790,347.133 235.581 C 347.207 235.371,348.254 235.200,349.460 235.200 C 350.666 235.200,351.987 235.021,352.396 234.802 C 352.805 234.583,353.785 234.358,354.573 234.302 C 355.367 234.246,355.936 234.014,355.848 233.784 C 355.761 233.555,356.164 233.328,356.745 233.280 C 357.325 233.232,357.860 233.015,357.933 232.797 C 358.007 232.578,358.401 232.400,358.810 232.400 C 359.218 232.400,359.666 232.217,359.804 231.993 C 359.942 231.770,360.190 231.670,360.355 231.772 C 360.520 231.874,360.907 231.607,361.215 231.179 C 361.524 230.750,362.011 230.400,362.297 230.400 C 362.583 230.400,363.015 229.965,363.257 229.434 C 363.499 228.903,364.033 228.380,364.444 228.273 C 364.854 228.165,365.364 227.621,365.576 227.063 C 365.788 226.505,366.330 225.851,366.781 225.610 C 367.231 225.369,367.600 224.906,367.600 224.580 C 367.600 224.255,367.767 223.677,367.971 223.295 C 368.175 222.913,368.443 222.274,368.568 221.875 C 368.692 221.476,368.942 221.241,369.124 221.353 C 369.305 221.465,369.496 220.711,369.548 219.678 C 369.600 218.645,369.813 217.740,370.021 217.667 C 370.570 217.473,370.486 216.501,369.900 216.265 C 369.526 216.114,369.522 216.055,369.884 216.032 C 370.605 215.985,370.626 186.157,369.906 185.867 C 369.507 185.706,369.506 185.656,369.900 185.632 C 370.481 185.595,370.581 184.530,370.021 184.333 C 369.813 184.260,369.600 183.345,369.547 182.300 C 369.483 181.047,369.272 180.400,368.925 180.400 C 368.636 180.400,368.400 179.965,368.400 179.433 C 368.400 178.902,368.210 178.403,367.978 178.326 C 367.746 178.249,367.511 177.879,367.456 177.504 C 367.401 177.130,367.202 176.683,367.014 176.512 C 366.826 176.340,366.818 176.453,366.998 176.762 C 367.202 177.115,367.170 177.229,366.910 177.068 C 366.683 176.928,366.187 176.158,365.807 175.358 C 365.427 174.558,364.792 173.818,364.395 173.715 C 363.999 173.611,363.584 173.184,363.475 172.765 C 363.366 172.346,362.944 171.881,362.538 171.730 C 362.132 171.579,361.374 170.993,360.853 170.428 C 360.332 169.862,360.017 169.608,360.154 169.863 C 360.340 170.212,360.164 170.213,359.435 169.869 C 358.903 169.618,358.530 169.313,358.605 169.191 C 358.724 169.000,357.766 168.808,356.138 168.698 C 355.884 168.681,355.754 168.465,355.848 168.219 C 355.948 167.958,355.497 167.732,354.765 167.676 C 354.075 167.624,353.216 167.433,352.855 167.254 C 352.495 167.074,351.210 166.883,350.000 166.831 C 348.790 166.778,347.530 166.504,347.200 166.222 C 346.870 165.940,345.825 165.686,344.877 165.657 C 343.930 165.628,342.817 165.423,342.404 165.202 C 341.991 164.981,341.303 164.800,340.875 164.800 C 340.448 164.800,339.874 164.530,339.600 164.200 C 339.326 163.870,338.764 163.600,338.351 163.600 C 337.938 163.600,337.600 163.420,337.600 163.200 C 337.600 162.980,337.330 162.800,337.000 162.800 C 336.670 162.800,336.400 162.609,336.400 162.376 C 336.400 162.143,336.236 162.054,336.036 162.177 C 335.837 162.301,335.218 161.862,334.662 161.201 C 334.106 160.540,333.488 160.000,333.289 160.000 C 333.089 160.000,332.587 159.370,332.172 158.600 C 331.757 157.830,331.279 157.200,331.109 157.200 C 330.939 157.200,330.800 157.012,330.800 156.783 C 330.800 156.553,330.350 155.880,329.800 155.287 C 329.250 154.693,328.800 153.981,328.800 153.704 C 328.800 153.427,328.620 153.200,328.400 153.200 C 328.180 153.200,328.000 152.957,328.000 152.660 C 328.000 152.362,327.550 151.273,327.000 150.238 C 326.450 149.204,326.000 147.932,326.000 147.412 C 326.000 146.892,325.839 146.407,325.642 146.333 C 325.445 146.260,325.189 145.485,325.074 144.611 C 324.958 143.736,324.669 142.956,324.432 142.877 C 323.912 142.704,323.818 130.000,324.337 130.000 C 324.522 130.000,324.880 129.309,325.133 128.465 C 325.386 127.621,325.955 126.514,326.397 126.004 C 326.838 125.494,327.200 124.835,327.200 124.539 C 327.200 124.242,327.380 124.000,327.600 124.000 C 327.820 124.000,328.000 123.730,328.000 123.400 C 328.000 123.070,328.180 122.800,328.400 122.800 C 328.620 122.800,328.800 122.506,328.800 122.146 C 328.800 121.786,329.254 121.071,329.810 120.556 C 330.365 120.042,330.815 119.526,330.810 119.410 C 330.759 118.301,330.860 117.990,331.200 118.200 C 331.420 118.336,331.600 118.167,331.600 117.824 C 331.600 117.481,331.870 117.200,332.200 117.200 C 332.530 117.200,332.779 117.065,332.753 116.900 C 332.598 115.919,332.881 115.200,333.424 115.200 C 333.767 115.200,333.946 115.036,333.822 114.836 C 333.524 114.353,333.999 113.152,334.392 113.395 C 334.561 113.500,334.700 113.118,334.700 112.547 C 334.700 111.976,334.909 111.380,335.165 111.221 C 335.778 110.843,335.834 99.592,335.225 99.216 C 334.993 99.072,334.762 98.449,334.711 97.830 C 334.660 97.211,334.390 96.617,334.111 96.511 C 333.833 96.404,333.704 96.155,333.826 95.958 C 333.948 95.761,333.863 95.600,333.638 95.600 C 333.413 95.600,332.801 94.971,332.279 94.202 C 331.757 93.433,331.210 92.923,331.065 93.069 C 330.919 93.214,330.800 93.033,330.800 92.667 C 330.800 92.300,330.609 92.000,330.376 92.000 C 330.143 92.000,330.058 91.829,330.188 91.620 C 330.317 91.411,330.057 91.045,329.611 90.806 C 329.165 90.567,328.800 90.215,328.800 90.023 C 328.800 89.832,327.900 88.741,326.800 87.600 C 325.700 86.459,324.800 85.362,324.800 85.162 C 324.800 84.963,324.460 84.800,324.043 84.800 C 323.570 84.800,323.193 84.426,323.036 83.800 C 322.898 83.250,322.513 82.800,322.180 82.800 C 321.847 82.800,321.457 82.485,321.314 82.100 C 320.961 81.154,318.852 79.124,317.500 78.430 C 316.895 78.119,316.400 77.694,316.400 77.485 C 316.400 76.991,313.409 74.000,312.915 74.000 C 312.706 74.000,312.298 73.556,312.007 73.014 C 311.717 72.471,311.327 72.122,311.140 72.237 C 310.953 72.353,310.800 72.295,310.800 72.110 C 310.800 71.924,310.260 71.454,309.600 71.064 C 308.940 70.674,308.400 70.095,308.400 69.777 C 308.400 69.422,307.999 69.200,307.357 69.200 C 306.579 69.200,306.375 69.042,306.553 68.579 C 306.684 68.238,306.625 68.061,306.423 68.186 C 306.221 68.311,305.940 68.227,305.800 68.000 C 305.660 67.773,305.384 67.686,305.189 67.807 C 304.804 68.045,303.180 67.252,302.715 66.600 C 302.271 65.979,291.109 66.073,290.900 66.700 C 290.808 66.975,290.570 67.200,290.369 67.200 C 289.711 67.200,286.800 68.582,286.800 68.894 C 286.800 69.062,286.369 69.200,285.842 69.200 C 285.315 69.200,284.460 69.647,283.942 70.193 C 283.424 70.739,282.674 71.189,282.276 71.193 C 281.878 71.197,281.664 71.380,281.800 71.600 C 281.936 71.820,281.767 72.000,281.424 72.000 C 281.081 72.000,280.800 72.180,280.800 72.400 C 280.800 72.620,280.524 72.800,280.187 72.800 C 279.851 72.800,279.471 73.070,279.345 73.400 C 279.218 73.730,278.864 74.000,278.557 74.000 C 278.251 74.000,278.000 74.137,278.000 74.305 C 278.000 74.611,276.815 75.333,275.500 75.829 C 275.115 75.974,274.800 76.252,274.800 76.447 C 274.800 76.641,274.365 76.800,273.833 76.800 C 273.302 76.800,272.797 77.009,272.712 77.265 C 272.570 77.690,270.846 77.989,268.478 78.001 C 267.850 78.004,267.651 78.164,267.855 78.503 C 268.086 78.888,268.013 78.886,267.529 78.494 C 267.150 78.188,265.467 77.951,263.258 77.894 C 260.785 77.830,259.550 77.639,259.419 77.300 C 259.312 77.025,258.600 76.800,257.836 76.800 C 257.072 76.800,256.336 76.620,256.200 76.400 C 256.064 76.180,255.445 76.000,254.825 76.000 C 254.205 76.000,253.474 75.730,253.200 75.400 C 252.926 75.070,252.274 74.800,251.751 74.800 C 251.228 74.800,250.800 74.620,250.800 74.400 C 250.800 74.180,250.369 74.000,249.843 74.000 C 249.316 74.000,248.782 73.730,248.655 73.400 C 248.529 73.070,248.226 72.800,247.982 72.800 C 247.325 72.800,242.005 69.066,241.998 68.600 C 241.995 68.380,241.456 67.776,240.799 67.257 C 240.143 66.739,239.696 66.168,239.807 65.989 C 239.917 65.810,239.556 65.309,239.004 64.874 C 238.452 64.440,238.000 63.706,238.000 63.242 C 238.000 62.779,237.820 62.400,237.600 62.400 C 237.380 62.400,237.200 61.785,237.200 61.033 C 237.200 60.282,236.996 59.599,236.747 59.516 C 236.497 59.432,236.236 58.398,236.166 57.218 C 236.096 56.037,235.865 54.964,235.653 54.833 C 235.441 54.701,235.224 53.515,235.172 52.197 C 235.120 50.879,234.842 49.328,234.554 48.751 C 234.267 48.174,234.139 47.594,234.270 47.463 C 234.401 47.332,234.231 46.801,233.891 46.283 C 233.552 45.765,233.213 44.905,233.137 44.371 C 233.062 43.837,232.910 43.310,232.800 43.200 C 232.690 43.090,232.259 42.330,231.843 41.511 C 231.427 40.693,230.932 40.118,230.743 40.235 C 230.554 40.352,230.400 40.249,230.400 40.008 C 230.400 39.362,227.202 36.388,224.990 34.977 C 224.335 34.560,223.710 34.110,223.600 33.978 C 223.036 33.299,220.493 32.400,219.139 32.400 C 218.292 32.400,217.600 32.236,217.600 32.036 C 217.600 31.566,184.406 31.503,183.600 31.972 M210.800 133.566 C 210.800 133.767,211.925 134.013,213.300 134.112 C 215.801 134.293,218.695 134.903,220.200 135.567 C 220.640 135.761,222.080 136.237,223.400 136.624 C 224.720 137.012,226.070 137.468,226.400 137.637 C 226.730 137.807,228.125 138.452,229.500 139.072 C 230.875 139.692,232.000 140.334,232.000 140.499 C 232.000 140.665,232.274 140.800,232.608 140.800 C 232.942 140.800,233.929 141.250,234.800 141.800 C 235.671 142.350,236.506 142.800,236.654 142.800 C 236.803 142.800,237.514 143.250,238.236 143.800 C 238.957 144.350,239.647 144.800,239.770 144.800 C 240.022 144.800,241.650 146.144,243.041 147.500 C 243.548 147.995,244.104 148.400,244.276 148.400 C 244.692 148.400,253.600 157.296,253.600 157.712 C 253.600 157.890,254.005 158.452,254.500 158.959 C 255.856 160.350,257.200 161.978,257.200 162.230 C 257.200 162.353,257.650 163.043,258.200 163.764 C 258.750 164.486,259.200 165.197,259.200 165.346 C 259.200 165.494,259.650 166.329,260.200 167.200 C 260.750 168.071,261.200 169.058,261.200 169.392 C 261.200 169.726,261.380 170.000,261.600 170.000 C 261.820 170.000,262.000 170.349,262.000 170.776 C 262.000 171.203,262.175 171.661,262.389 171.793 C 262.603 171.926,263.069 172.701,263.423 173.517 C 263.777 174.333,264.203 175.270,264.369 175.600 C 264.535 175.930,264.988 177.280,265.376 178.600 C 265.763 179.920,266.239 181.360,266.433 181.800 C 267.097 183.305,267.707 186.199,267.888 188.700 C 267.987 190.075,268.233 191.200,268.434 191.200 C 268.645 191.200,268.800 195.343,268.800 201.000 C 268.800 206.657,268.645 210.800,268.434 210.800 C 268.233 210.800,267.987 211.925,267.888 213.300 C 267.707 215.801,267.097 218.695,266.433 220.200 C 266.239 220.640,265.763 222.080,265.376 223.400 C 264.988 224.720,264.535 226.070,264.369 226.400 C 264.203 226.730,263.777 227.667,263.423 228.483 C 263.069 229.299,262.603 230.074,262.389 230.207 C 262.175 230.339,262.000 230.797,262.000 231.224 C 262.000 231.651,261.820 232.000,261.600 232.000 C 261.380 232.000,261.200 232.274,261.200 232.608 C 261.200 232.942,260.750 233.929,260.200 234.800 C 259.650 235.671,259.200 236.506,259.200 236.654 C 259.200 236.803,258.750 237.514,258.200 238.236 C 257.650 238.957,257.200 239.647,257.200 239.770 C 257.200 240.022,255.856 241.650,254.500 243.041 C 254.005 243.548,253.600 244.104,253.600 244.276 C 253.600 244.692,244.704 253.600,244.288 253.600 C 244.110 253.600,243.548 254.005,243.041 254.500 C 241.650 255.856,240.022 257.200,239.770 257.200 C 239.647 257.200,238.957 257.650,238.236 258.200 C 237.514 258.750,236.803 259.200,236.654 259.200 C 236.506 259.200,235.671 259.650,234.800 260.200 C 233.929 260.750,232.942 261.200,232.608 261.200 C 232.274 261.200,232.000 261.380,232.000 261.600 C 232.000 261.820,231.651 262.000,231.224 262.000 C 230.797 262.000,230.339 262.175,230.207 262.389 C 230.074 262.603,229.299 263.069,228.483 263.423 C 227.667 263.777,226.730 264.203,226.400 264.369 C 226.070 264.535,224.720 264.988,223.400 265.376 C 222.080 265.763,220.640 266.239,220.200 266.433 C 218.695 267.097,215.801 267.707,213.300 267.888 C 211.925 267.987,210.800 268.233,210.800 268.434 C 210.800 268.645,206.657 268.800,201.000 268.800 C 195.343 268.800,191.200 268.645,191.200 268.434 C 191.200 268.233,190.075 267.987,188.700 267.888 C 186.199 267.707,183.305 267.097,181.800 266.433 C 181.360 266.239,179.920 265.763,178.600 265.376 C 177.280 264.988,175.930 264.535,175.600 264.369 C 175.270 264.203,174.333 263.777,173.517 263.423 C 172.701 263.069,171.926 262.603,171.793 262.389 C 171.661 262.175,171.203 262.000,170.776 262.000 C 170.349 262.000,170.000 261.820,170.000 261.600 C 170.000 261.380,169.726 261.200,169.392 261.200 C 169.058 261.200,168.071 260.750,167.200 260.200 C 166.329 259.650,165.494 259.200,165.346 259.200 C 165.197 259.200,164.486 258.750,163.764 258.200 C 163.043 257.650,162.353 257.200,162.230 257.200 C 161.978 257.200,160.350 255.856,158.959 254.500 C 158.452 254.005,157.896 253.600,157.724 253.600 C 157.308 253.600,148.400 244.704,148.400 244.288 C 148.400 244.110,147.995 243.548,147.500 243.041 C 146.144 241.650,144.800 240.022,144.800 239.770 C 144.800 239.647,144.350 238.957,143.800 238.236 C 143.250 237.514,142.800 236.803,142.800 236.654 C 142.800 236.506,142.350 235.671,141.800 234.800 C 141.250 233.929,140.800 232.942,140.800 232.608 C 140.800 232.274,140.665 232.000,140.499 232.000 C 140.334 232.000,139.692 230.875,139.072 229.500 C 138.452 228.125,137.807 226.730,137.637 226.400 C 137.468 226.070,137.012 224.720,136.624 223.400 C 136.237 222.080,135.761 220.640,135.567 220.200 C 134.903 218.695,134.293 215.801,134.112 213.300 C 134.013 211.925,133.767 210.800,133.566 210.800 C 133.355 210.800,133.200 206.657,133.200 201.000 C 133.200 195.343,133.355 191.200,133.566 191.200 C 133.767 191.200,134.013 190.075,134.112 188.700 C 134.293 186.199,134.903 183.305,135.567 181.800 C 135.761 181.360,136.237 179.920,136.624 178.600 C 137.012 177.280,137.468 175.930,137.637 175.600 C 137.807 175.270,138.452 173.875,139.072 172.500 C 139.692 171.125,140.334 170.000,140.499 170.000 C 140.665 170.000,140.800 169.726,140.800 169.392 C 140.800 169.058,141.250 168.071,141.800 167.200 C 142.350 166.329,142.800 165.494,142.800 165.346 C 142.800 165.197,143.250 164.486,143.800 163.764 C 144.350 163.043,144.800 162.353,144.800 162.230 C 144.800 161.978,146.144 160.350,147.500 158.959 C 147.995 158.452,148.400 157.896,148.400 157.724 C 148.400 157.308,157.296 148.400,157.712 148.400 C 157.890 148.400,158.452 147.995,158.959 147.500 C 160.350 146.144,161.978 144.800,162.230 144.800 C 162.353 144.800,163.043 144.350,163.764 143.800 C 164.486 143.250,165.197 142.800,165.346 142.800 C 165.494 142.800,166.329 142.350,167.200 141.800 C 168.071 141.250,169.058 140.800,169.392 140.800 C 169.726 140.800,170.000 140.665,170.000 140.499 C 170.000 140.334,171.125 139.692,172.500 139.072 C 173.875 138.452,175.270 137.807,175.600 137.637 C 175.930 137.468,177.280 137.012,178.600 136.624 C 179.920 136.237,181.360 135.761,181.800 135.567 C 183.305 134.903,186.199 134.293,188.700 134.112 C 190.075 134.013,191.200 133.767,191.200 133.566 C 191.200 133.355,195.343 133.200,201.000 133.200 C 206.657 133.200,210.800 133.355,210.800 133.566 " stroke="none" fill="#bcbcc4" fill-rule="evenodd"></path><path id="path1" d="M195.430 133.952 C 195.310 134.146,193.679 134.432,191.806 134.588 C 189.933 134.744,188.400 135.018,188.400 135.197 C 188.400 135.376,187.545 135.623,186.500 135.746 C 182.455 136.221,181.214 136.501,180.766 137.041 C 180.511 137.348,179.872 137.600,179.346 137.600 C 178.820 137.600,178.077 137.765,177.695 137.966 C 177.313 138.168,176.280 138.627,175.400 138.986 C 174.520 139.345,173.487 139.810,173.105 140.019 C 172.723 140.229,172.138 140.400,171.805 140.400 C 171.472 140.400,171.200 140.545,171.200 140.723 C 171.200 140.901,170.435 141.375,169.500 141.777 C 168.565 142.179,167.227 142.934,166.527 143.454 C 165.826 143.974,165.089 144.400,164.889 144.400 C 164.688 144.400,164.198 144.760,163.800 145.200 C 163.402 145.640,162.828 146.000,162.525 146.000 C 162.223 146.000,161.871 146.270,161.745 146.600 C 161.618 146.930,161.295 147.200,161.027 147.200 C 160.759 147.200,160.117 147.650,159.600 148.200 C 159.083 148.750,158.532 149.200,158.375 149.200 C 158.001 149.200,149.200 158.001,149.200 158.375 C 149.200 158.532,148.750 159.083,148.200 159.600 C 147.650 160.117,147.200 160.759,147.200 161.027 C 147.200 161.295,146.930 161.618,146.600 161.745 C 146.270 161.871,146.000 162.223,146.000 162.525 C 146.000 162.828,145.640 163.402,145.200 163.800 C 144.760 164.198,144.400 164.688,144.400 164.889 C 144.400 165.089,143.974 165.826,143.454 166.527 C 142.934 167.227,142.179 168.565,141.777 169.500 C 141.375 170.435,140.901 171.200,140.723 171.200 C 140.545 171.200,140.400 171.472,140.400 171.805 C 140.400 172.138,140.229 172.723,140.019 173.105 C 139.810 173.487,139.345 174.520,138.986 175.400 C 138.627 176.280,138.168 177.313,137.966 177.695 C 137.765 178.077,137.600 178.820,137.600 179.346 C 137.600 179.872,137.348 180.511,137.041 180.766 C 136.501 181.214,136.221 182.455,135.746 186.500 C 135.623 187.545,135.376 188.400,135.197 188.400 C 135.018 188.400,134.744 189.933,134.588 191.806 C 134.432 193.679,134.146 195.310,133.952 195.430 C 133.758 195.549,133.600 198.056,133.600 201.000 C 133.600 203.944,133.758 206.451,133.952 206.570 C 134.146 206.690,134.432 208.321,134.588 210.194 C 134.744 212.067,135.018 213.600,135.197 213.600 C 135.376 213.600,135.623 214.455,135.746 215.500 C 136.221 219.545,136.501 220.786,137.041 221.234 C 137.348 221.489,137.600 222.128,137.600 222.654 C 137.600 223.180,137.765 223.923,137.966 224.305 C 138.168 224.687,138.627 225.720,138.986 226.600 C 139.345 227.480,139.810 228.513,140.019 228.895 C 140.229 229.277,140.400 229.862,140.400 230.195 C 140.400 230.528,140.545 230.800,140.723 230.800 C 140.901 230.800,141.375 231.565,141.777 232.500 C 142.179 233.435,142.934 234.773,143.454 235.473 C 143.974 236.174,144.400 236.911,144.400 237.111 C 144.400 237.312,144.760 237.802,145.200 238.200 C 145.640 238.598,146.000 239.172,146.000 239.475 C 146.000 239.777,146.270 240.129,146.600 240.255 C 146.930 240.382,147.200 240.705,147.200 240.973 C 147.200 241.241,147.650 241.883,148.200 242.400 C 148.750 242.917,149.200 243.477,149.200 243.645 C 149.200 244.261,160.319 254.800,160.970 254.800 C 161.115 254.800,161.451 254.977,161.717 255.194 C 163.866 256.947,164.753 257.600,164.984 257.600 C 165.132 257.600,165.826 258.026,166.527 258.546 C 167.227 259.066,168.565 259.821,169.500 260.223 C 170.435 260.625,171.200 261.099,171.200 261.277 C 171.200 261.455,171.472 261.600,171.805 261.600 C 172.138 261.600,172.723 261.771,173.105 261.981 C 173.487 262.190,174.520 262.655,175.400 263.014 C 176.280 263.373,177.313 263.832,177.695 264.034 C 178.077 264.235,178.754 264.400,179.200 264.400 C 179.646 264.400,180.323 264.567,180.705 264.771 C 182.042 265.485,185.563 266.400,186.975 266.400 C 187.759 266.400,188.400 266.564,188.400 266.764 C 188.400 266.964,189.933 267.256,191.806 267.412 C 193.679 267.568,195.310 267.854,195.430 268.048 C 195.714 268.508,206.286 268.508,206.570 268.048 C 206.690 267.854,208.321 267.568,210.194 267.412 C 212.067 267.256,213.600 266.964,213.600 266.764 C 213.600 266.564,214.241 266.400,215.025 266.400 C 216.437 266.400,219.958 265.485,221.295 264.771 C 221.677 264.567,222.354 264.400,222.800 264.400 C 223.246 264.400,223.923 264.235,224.305 264.034 C 224.687 263.832,225.720 263.373,226.600 263.014 C 227.480 262.655,228.513 262.190,228.895 261.981 C 229.277 261.771,229.862 261.600,230.195 261.600 C 230.528 261.600,230.800 261.455,230.800 261.277 C 230.800 261.099,231.565 260.625,232.500 260.223 C 233.435 259.821,234.773 259.066,235.473 258.546 C 236.174 258.026,236.868 257.600,237.016 257.600 C 237.247 257.600,238.134 256.947,240.283 255.194 C 240.549 254.977,240.876 254.800,241.010 254.800 C 242.048 254.800,254.800 242.067,254.800 241.030 C 254.800 240.885,254.977 240.549,255.194 240.283 C 256.947 238.134,257.600 237.247,257.600 237.016 C 257.600 236.868,258.026 236.174,258.546 235.473 C 259.066 234.773,259.821 233.435,260.223 232.500 C 260.625 231.565,261.099 230.800,261.277 230.800 C 261.455 230.800,261.600 230.528,261.600 230.195 C 261.600 229.862,261.771 229.277,261.981 228.895 C 262.190 228.513,262.655 227.480,263.014 226.600 C 263.373 225.720,263.832 224.687,264.034 224.305 C 264.235 223.923,264.400 223.246,264.400 222.800 C 264.400 222.354,264.567 221.677,264.771 221.295 C 265.485 219.958,266.400 216.437,266.400 215.025 C 266.400 214.241,266.564 213.600,266.764 213.600 C 266.964 213.600,267.256 212.067,267.412 210.194 C 267.568 208.321,267.854 206.690,268.048 206.570 C 268.242 206.451,268.400 203.944,268.400 201.000 C 268.400 198.056,268.242 195.549,268.048 195.430 C 267.854 195.310,267.568 193.679,267.412 191.806 C 267.256 189.933,266.964 188.400,266.764 188.400 C 266.564 188.400,266.400 187.759,266.400 186.975 C 266.400 185.563,265.485 182.042,264.771 180.705 C 264.567 180.323,264.400 179.646,264.400 179.200 C 264.400 178.754,264.235 178.077,264.034 177.695 C 263.832 177.313,263.373 176.280,263.014 175.400 C 262.655 174.520,262.190 173.487,261.981 173.105 C 261.771 172.723,261.600 172.138,261.600 171.805 C 261.600 171.472,261.455 171.200,261.277 171.200 C 261.099 171.200,260.625 170.435,260.223 169.500 C 259.821 168.565,259.066 167.227,258.546 166.527 C 258.026 165.826,257.600 165.132,257.600 164.984 C 257.600 164.753,256.947 163.866,255.194 161.717 C 254.977 161.451,254.800 161.115,254.800 160.970 C 254.800 160.319,244.261 149.200,243.645 149.200 C 243.477 149.200,242.917 148.750,242.400 148.200 C 241.883 147.650,241.241 147.200,240.973 147.200 C 240.705 147.200,240.382 146.930,240.255 146.600 C 240.129 146.270,239.777 146.000,239.475 146.000 C 239.172 146.000,238.598 145.640,238.200 145.200 C 237.802 144.760,237.312 144.400,237.111 144.400 C 236.911 144.400,236.174 143.974,235.473 143.454 C 234.773 142.934,233.435 142.179,232.500 141.777 C 231.565 141.375,230.800 140.901,230.800 140.723 C 230.800 140.545,230.528 140.400,230.195 140.400 C 229.862 140.400,229.277 140.229,228.895 140.019 C 228.513 139.810,227.480 139.345,226.600 138.986 C 225.720 138.627,224.687 138.168,224.305 137.966 C 223.923 137.765,223.180 137.600,222.654 137.600 C 222.128 137.600,221.489 137.348,221.234 137.041 C 220.786 136.501,219.545 136.221,215.500 135.746 C 214.455 135.623,213.600 135.376,213.600 135.197 C 213.600 135.018,212.067 134.744,210.194 134.588 C 208.321 134.432,206.690 134.146,206.570 133.952 C 206.451 133.758,203.944 133.600,201.000 133.600 C 198.056 133.600,195.549 133.758,195.430 133.952 " stroke="none" fill="#6c6c74" fill-rule="evenodd"></path><path id="path2" d="M191.800 133.816 L 188.600 134.331 191.800 134.065 C 195.936 133.722,206.101 133.724,210.200 134.069 L 213.400 134.338 210.000 133.799 C 205.749 133.125,196.034 133.134,191.800 133.816 M186.400 134.800 C 185.931 135.103,186.034 135.189,186.876 135.194 C 187.468 135.197,188.064 135.020,188.200 134.800 C 188.516 134.289,187.190 134.289,186.400 134.800 M213.800 134.800 C 213.936 135.020,214.532 135.197,215.124 135.194 C 215.966 135.189,216.069 135.103,215.600 134.800 C 214.810 134.289,213.484 134.289,213.800 134.800 M183.200 135.618 C 182.762 135.915,182.924 135.952,183.800 135.756 C 185.271 135.427,185.590 135.198,184.567 135.206 C 184.145 135.209,183.530 135.395,183.200 135.618 M216.833 135.344 C 216.925 135.423,217.540 135.608,218.200 135.756 C 219.076 135.952,219.238 135.915,218.800 135.618 C 218.260 135.253,216.432 134.998,216.833 135.344 M179.800 136.614 C 178.842 137.053,178.765 137.168,179.420 137.182 C 179.871 137.192,180.411 137.037,180.620 136.839 C 180.829 136.640,181.360 136.391,181.800 136.285 L 182.600 136.093 181.800 136.079 C 181.360 136.071,180.460 136.312,179.800 136.614 M220.200 136.285 C 220.640 136.391,221.171 136.640,221.380 136.839 C 221.589 137.037,222.129 137.193,222.580 137.184 C 223.181 137.173,223.041 137.013,222.054 136.584 C 221.314 136.263,220.414 136.021,220.054 136.046 C 219.594 136.079,219.637 136.150,220.200 136.285 M174.400 138.600 C 173.094 139.347,173.551 139.355,175.254 138.616 C 175.994 138.294,176.330 138.031,176.000 138.030 C 175.670 138.029,174.950 138.286,174.400 138.600 M226.746 138.616 C 227.486 138.937,228.206 139.194,228.346 139.186 C 228.866 139.157,226.576 138.028,226.000 138.030 C 225.670 138.031,226.006 138.294,226.746 138.616 M228.833 139.357 C 229.283 139.781,232.113 141.220,232.242 141.091 C 232.324 141.010,231.655 140.551,230.757 140.072 C 229.270 139.277,228.410 138.958,228.833 139.357 M166.585 142.539 C 164.834 143.529,161.222 146.041,160.975 146.441 C 160.831 146.673,161.893 146.038,163.334 145.031 C 164.775 144.024,166.122 143.200,166.328 143.200 C 166.534 143.200,166.926 142.930,167.200 142.600 C 167.771 141.912,167.706 141.905,166.585 142.539 M234.768 142.561 C 235.059 142.913,235.466 143.200,235.672 143.200 C 235.878 143.200,237.225 144.024,238.666 145.031 C 240.107 146.038,241.172 146.678,241.032 146.453 C 240.746 145.988,237.694 143.875,235.619 142.703 C 234.557 142.103,234.360 142.070,234.768 142.561 M153.048 153.232 C 151.534 154.770,150.367 156.100,150.455 156.188 C 150.542 156.276,151.946 155.009,153.573 153.374 C 155.201 151.738,156.367 150.408,156.166 150.417 C 155.965 150.427,154.561 151.694,153.048 153.232 M248.400 153.368 C 250.050 154.997,251.475 156.256,251.566 156.166 C 251.770 155.964,246.097 150.399,245.691 150.403 C 245.531 150.405,246.750 151.740,248.400 153.368 M145.956 161.500 C 144.046 163.852,141.545 168.075,142.561 167.232 C 142.913 166.941,143.200 166.534,143.200 166.328 C 143.200 166.122,144.011 164.794,145.001 163.377 C 146.706 160.939,147.199 159.969,145.956 161.500 M256.842 163.168 C 257.760 164.506,258.587 165.600,258.679 165.600 C 258.874 165.600,258.647 165.214,257.095 162.910 C 256.470 161.981,255.781 161.112,255.566 160.979 C 255.350 160.845,255.925 161.831,256.842 163.168 M138.465 174.617 C 138.209 175.178,138.007 175.854,138.016 176.119 C 138.024 176.383,138.297 175.988,138.622 175.239 C 139.305 173.665,139.161 173.090,138.465 174.617 M262.814 173.654 C 262.806 173.794,263.063 174.514,263.384 175.254 C 263.706 175.994,263.969 176.330,263.970 176.000 C 263.972 175.424,262.843 173.134,262.814 173.654 M136.431 180.307 C 136.123 181.240,135.990 182.123,136.135 182.269 C 136.281 182.414,136.400 182.179,136.400 181.747 C 136.400 181.314,136.597 180.763,136.838 180.522 C 137.078 180.282,137.211 179.753,137.133 179.347 C 137.040 178.863,136.798 179.193,136.431 180.307 M264.816 179.476 C 264.807 179.958,264.980 180.464,265.200 180.600 C 265.420 180.736,265.621 181.242,265.646 181.724 C 265.675 182.267,265.756 182.364,265.860 181.979 C 265.953 181.638,265.759 180.738,265.430 179.979 C 264.958 178.893,264.828 178.786,264.816 179.476 M135.449 183.415 C 135.312 183.773,135.215 184.366,135.234 184.733 C 135.253 185.100,135.427 184.869,135.621 184.220 C 135.998 182.958,135.865 182.333,135.449 183.415 M266.244 183.800 C 266.573 185.271,266.802 185.590,266.794 184.567 C 266.791 184.145,266.605 183.530,266.382 183.200 C 266.085 182.762,266.048 182.924,266.244 183.800 M134.696 186.533 C 134.233 187.679,134.316 188.644,134.834 188.126 C 135.072 187.888,135.206 187.267,135.130 186.746 C 135.009 185.913,134.957 185.888,134.696 186.533 M266.806 186.876 C 266.803 187.468,266.980 188.064,267.200 188.200 C 267.711 188.516,267.711 187.190,267.200 186.400 C 266.897 185.931,266.811 186.034,266.806 186.876 M133.664 192.574 C 133.054 197.538,133.123 205.746,133.809 210.000 C 134.111 211.870,134.275 212.500,134.175 211.400 C 133.611 205.236,133.529 197.705,133.980 193.617 C 134.252 191.156,134.397 189.063,134.302 188.968 C 134.207 188.873,133.920 190.496,133.664 192.574 M267.925 191.800 C 268.076 193.560,268.200 197.700,268.200 201.000 C 268.200 204.300,268.076 208.440,267.925 210.200 C 267.679 213.073,267.695 213.196,268.082 211.400 C 268.319 210.300,268.513 205.620,268.513 201.000 C 268.513 196.380,268.319 191.700,268.082 190.600 C 267.695 188.804,267.679 188.927,267.925 191.800 M134.406 214.276 C 134.409 214.674,134.587 215.270,134.800 215.600 C 135.103 216.069,135.189 215.966,135.194 215.124 C 135.197 214.532,135.020 213.936,134.800 213.800 C 134.580 213.664,134.403 213.878,134.406 214.276 M267.100 213.831 C 266.935 213.997,266.805 214.598,266.812 215.167 C 266.823 216.073,266.875 216.113,267.239 215.487 C 267.695 214.705,267.581 213.346,267.100 213.831 M135.206 217.433 C 135.209 217.855,135.395 218.470,135.618 218.800 C 135.915 219.238,135.952 219.076,135.756 218.200 C 135.427 216.729,135.198 216.410,135.206 217.433 M266.446 217.267 C 266.421 217.634,266.296 218.264,266.170 218.667 C 265.952 219.362,265.963 219.363,266.397 218.687 C 266.648 218.296,266.773 217.666,266.673 217.287 C 266.511 216.668,266.488 216.666,266.446 217.267 M136.046 220.054 C 136.021 220.414,136.263 221.314,136.584 222.054 C 137.013 223.041,137.173 223.181,137.184 222.580 C 137.193 222.129,137.037 221.589,136.839 221.380 C 136.640 221.171,136.391 220.640,136.285 220.200 C 136.150 219.637,136.079 219.594,136.046 220.054 M265.646 220.276 C 265.621 220.758,265.420 221.264,265.200 221.400 C 264.980 221.536,264.807 222.042,264.816 222.524 C 264.828 223.214,264.958 223.107,265.430 222.021 C 265.759 221.262,265.953 220.362,265.860 220.021 C 265.756 219.636,265.675 219.733,265.646 220.276 M138.030 226.000 C 138.028 226.576,139.157 228.866,139.186 228.346 C 139.194 228.206,138.937 227.486,138.616 226.746 C 138.294 226.006,138.031 225.670,138.030 226.000 M263.515 226.210 C 263.392 226.645,263.169 227.360,263.020 227.800 C 262.871 228.240,263.042 228.094,263.400 227.476 C 263.758 226.858,263.981 226.142,263.895 225.886 C 263.810 225.630,263.639 225.776,263.515 226.210 M139.200 228.896 C 139.200 229.313,140.940 232.393,141.091 232.242 C 141.173 232.161,140.851 231.398,140.377 230.547 C 139.451 228.887,139.200 228.535,139.200 228.896 M261.631 230.431 C 261.177 231.370,260.862 232.195,260.931 232.265 C 261.000 232.334,261.454 231.647,261.938 230.738 C 262.423 229.830,262.738 229.005,262.638 228.905 C 262.538 228.805,262.085 229.491,261.631 230.431 M142.703 235.619 C 143.875 237.694,145.988 240.746,146.453 241.032 C 146.678 241.172,146.038 240.107,145.031 238.666 C 144.024 237.225,143.200 235.878,143.200 235.672 C 143.200 235.466,142.913 235.059,142.561 234.768 C 142.070 234.360,142.103 234.557,142.703 235.619 M256.842 238.832 C 255.925 240.169,255.350 241.155,255.566 241.021 C 255.781 240.888,256.470 240.019,257.095 239.090 C 258.647 236.786,258.874 236.400,258.679 236.400 C 258.587 236.400,257.760 237.494,256.842 238.832 M150.403 245.691 C 150.399 246.097,155.964 251.770,156.166 251.566 C 156.256 251.475,154.997 250.050,153.368 248.400 C 151.740 246.750,150.405 245.531,150.403 245.691 M248.400 248.600 C 246.761 250.250,245.557 251.600,245.724 251.600 C 246.064 251.600,251.600 246.149,251.600 245.814 C 251.600 245.410,251.372 245.608,248.400 248.600 M160.979 255.566 C 161.112 255.781,161.981 256.470,162.910 257.095 C 165.214 258.647,165.600 258.874,165.600 258.679 C 165.600 258.587,164.506 257.760,163.168 256.842 C 161.831 255.925,160.845 255.350,160.979 255.566 M238.914 256.749 C 236.814 258.249,235.687 259.225,236.800 258.581 C 238.250 257.741,240.799 255.925,241.013 255.579 C 241.353 255.028,241.214 255.106,238.914 256.749 M230.257 261.667 C 229.408 262.096,228.802 262.535,228.910 262.643 C 229.074 262.807,231.830 261.463,232.367 260.957 C 232.764 260.583,231.680 260.948,230.257 261.667 M174.400 263.400 C 174.950 263.714,175.670 263.971,176.000 263.970 C 176.330 263.969,175.994 263.706,175.254 263.384 C 173.551 262.645,173.094 262.653,174.400 263.400 M226.600 263.414 C 225.940 263.717,225.670 263.966,226.000 263.968 C 226.330 263.970,227.050 263.714,227.600 263.400 C 228.865 262.677,228.189 262.687,226.600 263.414 M179.979 265.430 C 180.738 265.759,181.638 265.953,181.979 265.860 C 182.364 265.756,182.267 265.675,181.724 265.646 C 181.242 265.621,180.736 265.420,180.600 265.200 C 180.464 264.980,179.958 264.807,179.476 264.816 C 178.786 264.828,178.893 264.958,179.979 265.430 M221.400 265.200 C 221.264 265.420,220.758 265.621,220.276 265.646 C 219.733 265.675,219.636 265.756,220.021 265.860 C 220.362 265.953,221.262 265.759,222.021 265.430 C 223.107 264.958,223.214 264.828,222.524 264.816 C 222.042 264.807,221.536 264.980,221.400 265.200 M183.200 266.382 C 183.530 266.605,184.145 266.791,184.567 266.794 C 185.590 266.802,185.271 266.573,183.800 266.244 C 182.924 266.048,182.762 266.085,183.200 266.382 M217.600 266.400 C 216.776 266.664,216.741 266.726,217.400 266.754 C 217.840 266.773,218.470 266.613,218.800 266.400 C 219.501 265.947,219.014 265.947,217.600 266.400 M186.400 267.200 C 187.190 267.711,188.516 267.711,188.200 267.200 C 188.064 266.980,187.468 266.803,186.876 266.806 C 186.034 266.811,185.931 266.897,186.400 267.200 M213.800 267.200 C 213.484 267.711,214.810 267.711,215.600 267.200 C 216.069 266.897,215.966 266.811,215.124 266.806 C 214.532 266.803,213.936 266.980,213.800 267.200 M190.600 268.082 C 191.700 268.319,196.380 268.513,201.000 268.513 C 205.620 268.513,210.300 268.319,211.400 268.082 C 213.196 267.695,213.073 267.679,210.200 267.925 C 208.440 268.076,204.300 268.200,201.000 268.200 C 197.700 268.200,193.560 268.076,191.800 267.925 C 188.927 267.679,188.804 267.695,190.600 268.082 " stroke="none" fill="#94949c" fill-rule="evenodd"></path><path id="path3" d="M192.000 134.168 C 190.130 134.422,188.330 134.750,188.000 134.898 C 187.670 135.045,186.860 135.236,186.200 135.323 C 185.276 135.444,185.392 135.494,186.700 135.540 C 187.635 135.573,188.400 135.436,188.400 135.236 C 188.400 135.036,189.933 134.744,191.806 134.588 C 193.679 134.432,195.310 134.146,195.430 133.952 C 195.549 133.758,195.592 133.624,195.524 133.653 C 195.456 133.682,193.870 133.913,192.000 134.168 M206.621 134.034 C 206.713 134.183,208.321 134.432,210.194 134.588 C 212.067 134.744,213.600 135.036,213.600 135.236 C 213.600 135.436,214.365 135.573,215.300 135.540 C 216.597 135.494,216.716 135.444,215.800 135.326 C 215.140 135.241,214.240 135.008,213.800 134.807 C 212.807 134.354,206.392 133.664,206.621 134.034 M183.000 136.000 L 182.200 136.344 183.000 136.366 C 183.440 136.378,184.070 136.213,184.400 136.000 C 185.195 135.486,184.196 135.486,183.000 136.000 M217.600 136.000 C 217.930 136.213,218.560 136.378,219.000 136.366 L 219.800 136.344 219.000 136.000 C 217.804 135.486,216.805 135.486,217.600 136.000 M180.600 136.800 C 180.464 137.020,179.934 137.200,179.422 137.200 C 178.910 137.200,177.976 137.469,177.346 137.798 C 176.621 138.176,176.448 138.396,176.876 138.398 C 177.248 138.399,177.664 138.220,177.800 138.000 C 177.936 137.780,178.555 137.600,179.175 137.600 C 179.795 137.600,180.526 137.330,180.800 137.000 C 181.074 136.670,181.197 136.400,181.073 136.400 C 180.949 136.400,180.736 136.580,180.600 136.800 M221.168 136.900 C 221.460 137.285,222.205 137.600,222.825 137.600 C 223.445 137.600,224.064 137.780,224.200 138.000 C 224.336 138.220,224.752 138.399,225.124 138.398 C 225.552 138.396,225.379 138.176,224.654 137.798 C 224.024 137.469,223.115 137.200,222.634 137.200 C 222.153 137.200,221.508 136.975,221.199 136.700 C 220.722 136.275,220.718 136.304,221.168 136.900 M173.400 139.391 C 172.300 139.909,171.704 140.348,172.076 140.367 C 172.448 140.385,172.855 140.234,172.981 140.031 C 173.106 139.828,173.745 139.544,174.400 139.400 C 175.055 139.256,175.694 138.972,175.819 138.769 C 176.165 138.210,175.598 138.356,173.400 139.391 M226.200 138.800 C 226.336 139.020,226.662 139.201,226.924 139.202 C 227.186 139.204,227.922 139.477,228.560 139.810 C 229.197 140.142,229.808 140.326,229.916 140.217 C 230.025 140.109,229.263 139.656,228.223 139.210 C 226.071 138.287,225.856 138.244,226.200 138.800 M169.258 141.433 C 166.672 142.755,166.284 143.376,168.819 142.136 C 171.260 140.942,171.402 140.853,171.167 140.671 C 171.075 140.600,170.216 140.943,169.258 141.433 M230.801 140.739 C 230.802 140.883,231.786 141.469,232.989 142.041 C 234.191 142.614,235.089 142.945,234.985 142.776 C 234.711 142.333,230.800 140.429,230.801 140.739 M163.000 145.199 C 159.821 147.417,157.717 149.200,158.280 149.200 C 158.489 149.200,159.083 148.750,159.600 148.200 C 160.117 147.650,160.759 147.200,161.027 147.200 C 161.295 147.200,161.618 146.930,161.745 146.600 C 161.871 146.270,162.223 146.000,162.525 146.000 C 162.828 146.000,163.402 145.640,163.800 145.200 C 164.198 144.760,164.744 144.400,165.013 144.400 C 165.282 144.400,165.726 144.130,166.000 143.800 C 166.894 142.723,165.852 143.209,163.000 145.199 M236.000 143.800 C 236.274 144.130,236.718 144.400,236.987 144.400 C 237.256 144.400,237.802 144.760,238.200 145.200 C 238.598 145.640,239.172 146.000,239.475 146.000 C 239.777 146.000,240.129 146.270,240.255 146.600 C 240.382 146.930,240.705 147.200,240.973 147.200 C 241.241 147.200,241.883 147.650,242.400 148.200 C 242.917 148.750,243.496 149.200,243.688 149.200 C 244.317 149.200,242.246 147.437,239.105 145.300 C 235.931 143.140,235.132 142.754,236.000 143.800 M156.182 150.540 C 155.271 151.542,155.146 152.146,156.023 151.311 C 156.536 150.822,156.876 150.345,156.778 150.251 C 156.680 150.158,156.412 150.288,156.182 150.540 M153.375 153.700 L 152.200 155.000 153.500 153.825 C 154.215 153.179,154.800 152.594,154.800 152.525 C 154.800 152.216,154.470 152.488,153.375 153.700 M247.200 152.525 C 247.200 152.594,247.785 153.179,248.500 153.825 L 249.800 155.000 248.625 153.700 C 247.530 152.488,247.200 152.216,247.200 152.525 M150.800 156.000 C 150.293 156.440,150.057 156.800,150.277 156.800 C 150.496 156.800,151.002 156.440,151.400 156.000 C 151.798 155.560,152.034 155.200,151.923 155.200 C 151.813 155.200,151.307 155.560,150.800 156.000 M250.600 156.000 C 250.998 156.440,251.504 156.800,251.723 156.800 C 251.943 156.800,251.707 156.440,251.200 156.000 C 250.693 155.560,250.187 155.200,250.077 155.200 C 249.966 155.200,250.202 155.560,250.600 156.000 M252.720 158.236 C 253.183 158.915,253.841 159.702,254.181 159.985 C 254.522 160.267,254.800 160.664,254.800 160.866 C 254.800 161.068,254.977 161.451,255.194 161.717 C 257.041 163.982,257.600 164.770,257.600 165.109 C 257.600 165.325,257.870 165.726,258.200 166.000 C 259.836 167.358,255.566 160.829,253.238 158.413 C 251.937 157.063,251.914 157.055,252.720 158.236 M148.200 158.960 C 146.226 161.064,142.430 167.137,143.800 166.000 C 144.130 165.726,144.400 165.282,144.400 165.013 C 144.400 164.744,144.760 164.198,145.200 163.800 C 145.640 163.402,146.000 162.828,146.000 162.525 C 146.000 162.223,146.270 161.871,146.600 161.745 C 146.930 161.618,147.200 161.319,147.200 161.079 C 147.200 160.840,147.682 160.141,148.271 159.526 C 148.860 158.911,149.265 158.341,149.171 158.258 C 149.077 158.175,148.640 158.491,148.200 158.960 M142.528 167.300 C 141.686 168.619,140.498 171.200,140.734 171.199 C 140.880 171.198,141.471 170.208,142.047 168.999 C 143.033 166.930,143.246 166.175,142.528 167.300 M259.959 169.011 C 260.531 170.214,261.117 171.198,261.261 171.199 C 261.571 171.200,259.667 167.289,259.224 167.015 C 259.055 166.911,259.386 167.809,259.959 169.011 M139.253 173.653 C 138.780 174.793,138.479 175.812,138.585 175.918 C 138.691 176.024,138.966 175.591,139.197 174.955 C 139.428 174.320,139.823 173.395,140.076 172.901 C 140.328 172.406,140.440 171.907,140.325 171.791 C 140.209 171.676,139.727 172.514,139.253 173.653 M261.614 171.905 C 261.606 172.183,261.780 172.723,262.000 173.105 C 262.220 173.487,262.585 174.320,262.811 174.955 C 263.037 175.591,263.316 176.018,263.429 175.904 C 263.543 175.790,263.185 174.730,262.632 173.548 C 262.080 172.367,261.622 171.627,261.614 171.905 M137.700 177.493 C 137.425 178.079,137.200 178.938,137.200 179.400 C 137.200 179.862,136.975 180.492,136.700 180.801 C 136.275 181.278,136.304 181.282,136.900 180.832 C 137.285 180.540,137.600 179.820,137.600 179.231 C 137.600 178.642,137.800 177.960,138.045 177.715 C 138.290 177.470,138.425 177.080,138.345 176.848 C 138.265 176.616,137.975 176.906,137.700 177.493 M263.602 176.876 C 263.601 177.248,263.780 177.664,264.000 177.800 C 264.220 177.936,264.400 178.489,264.400 179.029 C 264.400 179.569,264.576 180.323,264.791 180.705 C 265.006 181.087,265.378 182.183,265.617 183.140 C 265.857 184.098,266.143 184.790,266.254 184.679 C 266.501 184.432,265.593 181.146,265.133 180.620 C 264.950 180.411,264.800 179.847,264.800 179.366 C 264.800 178.885,264.531 177.976,264.202 177.346 C 263.824 176.621,263.604 176.448,263.602 176.876 M135.829 183.429 C 135.681 184.015,135.651 184.584,135.761 184.694 C 135.871 184.804,136.081 184.415,136.229 183.829 C 136.376 183.242,136.406 182.673,136.296 182.563 C 136.186 182.453,135.976 182.842,135.829 183.429 M135.267 186.305 C 135.230 187.023,135.026 187.923,134.814 188.305 C 134.361 189.121,133.640 195.622,134.030 195.382 C 134.176 195.291,134.425 193.729,134.584 191.910 C 134.742 190.091,135.048 188.494,135.264 188.361 C 135.479 188.227,135.583 187.417,135.495 186.559 C 135.347 185.117,135.329 185.098,135.267 186.305 M266.460 186.700 C 266.427 187.635,266.564 188.400,266.764 188.400 C 266.964 188.400,267.256 189.933,267.412 191.806 C 267.568 193.679,267.817 195.287,267.966 195.379 C 268.336 195.608,267.646 189.193,267.193 188.200 C 266.992 187.760,266.759 186.860,266.674 186.200 C 266.556 185.284,266.506 185.403,266.460 186.700 M134.103 209.727 C 134.290 211.527,134.607 213.360,134.807 213.800 C 135.008 214.240,135.241 215.140,135.326 215.800 C 135.444 216.716,135.494 216.597,135.540 215.300 C 135.573 214.365,135.436 213.600,135.236 213.600 C 135.036 213.600,134.744 212.067,134.588 210.194 C 134.432 208.321,134.183 206.713,134.034 206.621 C 133.886 206.529,133.917 207.927,134.103 209.727 M267.869 206.700 C 267.771 206.865,267.561 208.485,267.404 210.300 C 267.246 212.115,266.955 213.600,266.758 213.600 C 266.561 213.600,266.427 214.365,266.460 215.300 C 266.506 216.597,266.556 216.716,266.674 215.800 C 266.759 215.140,266.992 214.240,267.193 213.800 C 267.521 213.080,268.380 206.400,268.144 206.400 C 268.091 206.400,267.967 206.535,267.869 206.700 M135.634 217.600 C 135.646 217.930,135.811 218.560,136.000 219.000 L 136.344 219.800 136.366 219.000 C 136.378 218.560,136.213 217.930,136.000 217.600 C 135.655 217.067,135.615 217.067,135.634 217.600 M265.617 218.860 C 265.378 219.817,265.006 220.913,264.791 221.295 C 264.576 221.677,264.400 222.431,264.400 222.971 C 264.400 223.511,264.220 224.064,264.000 224.200 C 263.780 224.336,263.601 224.752,263.602 225.124 C 263.604 225.552,263.824 225.379,264.202 224.654 C 264.531 224.024,264.800 223.115,264.800 222.634 C 264.800 222.153,264.950 221.589,265.133 221.380 C 265.593 220.854,266.501 217.568,266.254 217.321 C 266.143 217.210,265.857 217.902,265.617 218.860 M136.700 221.199 C 136.975 221.508,137.200 222.153,137.200 222.634 C 137.200 223.115,137.469 224.024,137.798 224.654 C 138.176 225.379,138.396 225.552,138.398 225.124 C 138.399 224.752,138.220 224.336,138.000 224.200 C 137.780 224.064,137.600 223.445,137.600 222.825 C 137.600 222.205,137.285 221.460,136.900 221.168 C 136.304 220.718,136.275 220.722,136.700 221.199 M138.400 226.143 C 138.400 226.667,140.047 230.086,140.217 229.916 C 140.326 229.808,140.142 229.197,139.810 228.560 C 139.477 227.922,139.204 227.186,139.202 226.924 C 139.201 226.662,139.020 226.336,138.800 226.200 C 138.580 226.064,138.400 226.038,138.400 226.143 M262.811 227.045 C 262.585 227.680,262.207 228.533,261.972 228.939 C 261.737 229.345,261.624 229.757,261.721 229.854 C 261.818 229.951,262.291 229.194,262.771 228.171 C 263.252 227.149,263.550 226.217,263.434 226.101 C 263.318 225.984,263.037 226.409,262.811 227.045 M141.474 232.798 C 142.838 235.536,143.334 235.703,142.041 232.989 C 141.469 231.786,140.883 230.802,140.739 230.801 C 140.596 230.801,140.926 231.699,141.474 232.798 M259.959 232.989 C 259.386 234.191,259.055 235.089,259.224 234.985 C 259.667 234.711,261.571 230.800,261.261 230.801 C 261.117 230.802,260.531 231.786,259.959 232.989 M143.200 235.760 C 143.200 235.902,144.145 237.408,145.300 239.105 C 147.437 242.246,149.200 244.317,149.200 243.688 C 149.200 243.496,148.750 242.917,148.200 242.400 C 147.650 241.883,147.200 241.241,147.200 240.973 C 147.200 240.705,146.930 240.382,146.600 240.255 C 146.270 240.129,146.000 239.777,146.000 239.475 C 146.000 239.172,145.640 238.598,145.200 238.200 C 144.760 237.802,144.400 237.256,144.400 236.987 C 144.400 236.718,144.130 236.274,143.800 236.000 C 143.470 235.726,143.200 235.618,143.200 235.760 M258.073 236.087 C 257.813 236.347,257.600 236.723,257.600 236.922 C 257.600 237.234,257.023 238.040,255.194 240.283 C 254.977 240.549,254.800 240.932,254.800 241.134 C 254.800 241.336,254.522 241.733,254.181 242.015 C 253.841 242.298,253.183 243.085,252.720 243.764 C 251.914 244.945,251.937 244.937,253.238 243.587 C 255.599 241.137,260.273 233.887,258.073 236.087 M152.400 247.325 C 152.400 247.394,152.985 247.979,153.700 248.625 L 155.000 249.800 153.825 248.500 C 152.730 247.288,152.400 247.016,152.400 247.325 M248.175 248.500 L 247.000 249.800 248.300 248.625 C 249.015 247.979,249.600 247.394,249.600 247.325 C 249.600 247.016,249.270 247.288,248.175 248.500 M155.200 250.077 C 155.200 250.187,155.560 250.693,156.000 251.200 C 156.440 251.707,156.800 251.943,156.800 251.723 C 156.800 251.504,156.440 250.998,156.000 250.600 C 155.560 250.202,155.200 249.966,155.200 250.077 M158.413 253.238 C 160.829 255.566,167.358 259.836,166.000 258.200 C 165.726 257.870,165.325 257.600,165.109 257.600 C 164.770 257.600,163.982 257.041,161.717 255.194 C 161.451 254.977,161.068 254.800,160.866 254.800 C 160.664 254.800,160.267 254.522,159.985 254.181 C 159.702 253.841,158.915 253.183,158.236 252.720 C 157.055 251.914,157.063 251.937,158.413 253.238 M242.908 253.400 C 242.009 254.170,241.159 254.800,241.020 254.800 C 240.880 254.800,240.549 254.977,240.283 255.194 C 238.018 257.041,237.230 257.600,236.891 257.600 C 236.675 257.600,236.274 257.870,236.000 258.200 C 234.698 259.768,241.012 255.682,243.570 253.300 C 245.432 251.567,244.968 251.637,242.908 253.400 M167.015 259.224 C 167.289 259.667,171.200 261.571,171.199 261.261 C 171.198 261.117,170.214 260.531,169.011 259.959 C 167.809 259.386,166.911 259.055,167.015 259.224 M232.900 259.948 C 231.745 260.523,230.800 261.112,230.800 261.258 C 230.800 261.595,234.721 259.652,235.021 259.165 C 235.146 258.964,235.192 258.823,235.124 258.851 C 235.056 258.879,234.055 259.373,232.900 259.948 M173.548 262.632 C 174.730 263.185,175.790 263.543,175.904 263.429 C 176.018 263.316,175.591 263.037,174.955 262.811 C 174.320 262.585,173.487 262.220,173.105 262.000 C 172.723 261.780,172.183 261.606,171.905 261.614 C 171.627 261.622,172.367 262.080,173.548 262.632 M228.800 262.024 C 228.470 262.231,227.680 262.585,227.045 262.811 C 226.409 263.037,225.984 263.318,226.101 263.434 C 226.310 263.644,230.000 262.056,230.000 261.756 C 230.000 261.498,229.438 261.623,228.800 262.024 M177.346 264.202 C 177.976 264.531,178.885 264.800,179.366 264.800 C 179.847 264.800,180.411 264.950,180.620 265.133 C 181.146 265.593,184.432 266.501,184.679 266.254 C 184.790 266.143,184.098 265.857,183.140 265.617 C 182.183 265.378,181.087 265.006,180.705 264.791 C 180.323 264.576,179.569 264.400,179.029 264.400 C 178.489 264.400,177.936 264.220,177.800 264.000 C 177.664 263.780,177.248 263.601,176.876 263.602 C 176.448 263.604,176.621 263.824,177.346 264.202 M224.200 264.000 C 224.064 264.220,223.511 264.400,222.971 264.400 C 222.431 264.400,221.677 264.576,221.295 264.791 C 220.913 265.006,219.817 265.378,218.860 265.617 C 217.902 265.857,217.210 266.143,217.321 266.254 C 217.568 266.501,220.854 265.593,221.380 265.133 C 221.589 264.950,222.153 264.800,222.634 264.800 C 223.115 264.800,224.024 264.531,224.654 264.202 C 225.379 263.824,225.552 263.604,225.124 263.602 C 224.752 263.601,224.336 263.780,224.200 264.000 M186.200 266.674 C 186.860 266.759,187.760 266.992,188.200 267.193 C 189.193 267.646,195.608 268.336,195.379 267.966 C 195.287 267.817,193.679 267.568,191.806 267.412 C 189.933 267.256,188.400 266.964,188.400 266.764 C 188.400 266.564,187.635 266.427,186.700 266.460 C 185.403 266.506,185.284 266.556,186.200 266.674 M213.600 266.764 C 213.600 266.964,212.067 267.256,210.194 267.412 C 208.321 267.568,206.713 267.817,206.621 267.966 C 206.392 268.336,212.807 267.646,213.800 267.193 C 214.240 266.992,215.140 266.759,215.800 266.674 C 216.716 266.556,216.597 266.506,215.300 266.460 C 214.365 266.427,213.600 266.564,213.600 266.764 " stroke="none" fill="#848484" fill-rule="evenodd"></path><path id="path4" d="M191.200 133.520 C 191.200 133.696,191.875 133.772,192.700 133.691 C 195.022 133.461,195.191 133.266,193.100 133.232 C 192.055 133.214,191.200 133.344,191.200 133.520 M207.400 133.403 C 208.334 133.728,210.800 133.813,210.800 133.520 C 210.800 133.344,209.945 133.214,208.900 133.232 C 207.855 133.249,207.180 133.326,207.400 133.403 M186.000 134.367 C 185.670 134.556,184.636 134.836,183.702 134.990 C 182.768 135.144,181.885 135.462,181.740 135.698 C 181.562 135.985,181.793 136.029,182.437 135.832 C 182.967 135.670,184.030 135.381,184.800 135.190 C 185.570 134.999,186.830 134.671,187.600 134.462 L 189.000 134.082 187.800 134.053 C 187.140 134.037,186.330 134.179,186.000 134.367 M214.400 134.434 C 215.170 134.659,216.430 134.999,217.200 135.190 C 217.970 135.381,219.050 135.666,219.600 135.823 C 220.283 136.018,220.473 135.978,220.200 135.697 C 219.763 135.246,216.616 134.423,214.400 134.180 L 213.000 134.026 214.400 134.434 M177.929 136.750 C 175.886 137.460,175.100 138.000,176.110 138.000 C 176.463 138.000,176.864 137.820,177.000 137.600 C 177.136 137.380,177.552 137.192,177.924 137.182 C 178.296 137.172,179.140 136.917,179.800 136.614 C 181.438 135.864,180.225 135.952,177.929 136.750 M222.200 136.614 C 222.860 136.917,223.704 137.172,224.076 137.182 C 224.448 137.192,224.864 137.380,225.000 137.600 C 225.136 137.820,225.543 138.000,225.904 138.000 C 226.988 138.000,225.958 137.366,223.725 136.658 C 221.249 135.873,220.536 135.853,222.200 136.614 M172.100 139.148 C 170.945 139.723,170.000 140.309,170.000 140.451 C 170.000 140.668,174.667 138.586,175.167 138.147 C 175.719 137.661,173.884 138.260,172.100 139.148 M226.833 138.147 C 227.329 138.583,232.000 140.669,232.000 140.453 C 232.000 140.179,227.565 138.000,227.005 138.000 C 226.819 138.000,226.742 138.066,226.833 138.147 M167.281 141.681 C 166.556 142.129,166.050 142.584,166.158 142.691 C 166.266 142.799,166.859 142.533,167.477 142.101 C 168.095 141.668,168.870 141.213,169.200 141.089 C 169.733 140.888,169.733 140.863,169.200 140.865 C 168.870 140.866,168.007 141.233,167.281 141.681 M232.800 141.089 C 233.130 141.213,233.905 141.668,234.523 142.101 C 235.141 142.533,235.733 142.800,235.840 142.693 C 236.095 142.439,233.295 140.791,232.677 140.832 C 232.415 140.849,232.470 140.965,232.800 141.089 M163.800 143.788 C 163.140 144.329,162.457 144.778,162.283 144.786 C 161.752 144.810,159.774 146.800,160.280 146.800 C 160.540 146.800,160.861 146.624,160.994 146.410 C 161.127 146.195,162.217 145.368,163.418 144.571 C 164.618 143.774,165.600 143.050,165.600 142.961 C 165.600 142.563,164.905 142.882,163.800 143.788 M236.400 142.961 C 236.400 143.050,237.382 143.774,238.582 144.571 C 239.783 145.368,240.873 146.195,241.006 146.410 C 241.139 146.624,241.460 146.800,241.720 146.800 C 241.979 146.800,241.707 146.350,241.113 145.800 C 240.520 145.250,239.925 144.800,239.791 144.800 C 239.656 144.800,238.957 144.350,238.236 143.800 C 237.007 142.863,236.400 142.585,236.400 142.961 M152.893 152.906 C 150.422 155.385,148.400 157.675,148.400 157.995 C 148.400 158.347,148.671 158.186,149.082 157.589 C 149.457 157.045,151.302 155.062,153.182 153.182 C 155.062 151.302,157.045 149.457,157.589 149.082 C 158.209 148.654,158.356 148.400,157.982 148.400 C 157.655 148.400,155.365 150.428,152.893 152.906 M244.388 149.076 C 245.698 149.994,252.080 156.360,252.922 157.589 C 253.346 158.208,253.600 158.355,253.600 157.982 C 253.600 157.214,244.774 148.400,244.005 148.400 C 243.645 148.400,243.792 148.659,244.388 149.076 M145.670 161.006 C 145.191 161.556,144.800 162.107,144.800 162.230 C 144.800 162.353,144.325 163.076,143.744 163.838 C 143.164 164.599,142.777 165.310,142.885 165.418 C 142.993 165.526,143.594 164.846,144.220 163.907 C 144.847 162.968,145.715 161.796,146.148 161.302 C 146.582 160.807,146.847 160.314,146.738 160.205 C 146.629 160.095,146.148 160.456,145.670 161.006 M255.200 160.280 C 255.200 160.540,255.376 160.861,255.590 160.994 C 256.077 161.295,259.492 166.539,260.673 168.800 C 260.960 169.350,261.196 169.571,261.198 169.292 C 261.199 169.013,260.750 168.071,260.200 167.200 C 259.650 166.329,259.200 165.494,259.200 165.346 C 259.200 165.197,258.750 164.486,258.200 163.764 C 257.650 163.043,257.200 162.344,257.200 162.209 C 257.200 162.075,256.750 161.480,256.200 160.887 C 255.650 160.293,255.200 160.021,255.200 160.280 M141.633 167.434 C 141.157 168.241,140.850 169.104,140.952 169.351 C 141.066 169.628,141.149 169.594,141.168 169.262 C 141.186 168.966,141.580 168.190,142.044 167.539 C 142.508 166.887,142.800 166.267,142.693 166.160 C 142.586 166.053,142.109 166.626,141.633 167.434 M139.055 172.422 C 138.426 173.754,137.983 174.917,138.072 175.005 C 138.160 175.094,138.785 174.004,139.461 172.583 C 140.136 171.162,140.578 170.000,140.444 170.000 C 140.309 170.000,139.684 171.090,139.055 172.422 M262.926 173.402 C 263.378 174.383,263.827 175.106,263.926 175.007 C 264.149 174.785,262.901 172.110,262.442 171.826 C 262.257 171.711,262.475 172.421,262.926 173.402 M137.422 176.043 C 136.458 178.774,135.974 180.507,136.131 180.665 C 136.235 180.769,136.531 180.167,136.788 179.327 C 137.045 178.487,137.453 177.395,137.695 176.901 C 137.937 176.406,138.019 175.885,137.877 175.743 C 137.735 175.602,137.530 175.736,137.422 176.043 M264.000 176.040 C 264.000 176.370,264.150 176.811,264.333 177.020 C 264.515 177.229,264.888 178.183,265.160 179.139 C 265.433 180.095,265.743 180.790,265.850 180.683 C 265.957 180.576,265.739 179.523,265.365 178.344 C 264.652 176.097,264.000 174.997,264.000 176.040 M135.398 182.100 C 134.994 183.243,134.316 186.296,134.176 187.600 L 134.026 189.000 134.434 187.600 C 134.659 186.830,134.999 185.570,135.190 184.800 C 135.381 184.030,135.663 182.995,135.816 182.500 C 136.101 181.574,135.715 181.204,135.398 182.100 M266.177 182.400 C 266.334 182.950,266.619 184.030,266.810 184.800 C 267.001 185.570,267.341 186.830,267.566 187.600 L 267.974 189.000 267.820 187.600 C 267.577 185.384,266.754 182.237,266.303 181.800 C 266.022 181.527,265.982 181.717,266.177 182.400 M133.232 193.100 C 133.266 195.191,133.461 195.022,133.691 192.700 C 133.772 191.875,133.696 191.200,133.520 191.200 C 133.344 191.200,133.214 192.055,133.232 193.100 M268.303 192.700 C 268.548 195.272,268.705 195.482,268.754 193.300 C 268.779 192.145,268.656 191.200,268.480 191.200 C 268.304 191.200,268.225 191.875,268.303 192.700 M268.339 208.800 C 268.262 209.900,268.335 210.800,268.500 210.800 C 268.665 210.800,268.800 209.900,268.800 208.800 C 268.800 206.219,268.517 206.220,268.339 208.800 M133.232 208.900 C 133.214 209.945,133.344 210.800,133.520 210.800 C 133.696 210.800,133.772 210.125,133.691 209.300 C 133.461 206.978,133.266 206.809,133.232 208.900 M134.180 214.400 C 134.423 216.616,135.246 219.763,135.697 220.200 C 135.978 220.473,136.018 220.283,135.823 219.600 C 135.666 219.050,135.381 217.970,135.190 217.200 C 134.999 216.430,134.659 215.170,134.434 214.400 L 134.026 213.000 134.180 214.400 M267.510 214.200 C 267.118 216.005,266.499 218.481,266.168 219.563 C 265.975 220.194,266.018 220.436,266.292 220.267 C 266.521 220.125,266.827 219.332,266.971 218.504 C 267.115 217.677,267.420 216.522,267.649 215.938 C 267.878 215.354,267.999 214.454,267.918 213.938 C 267.783 213.085,267.746 213.109,267.510 214.200 M136.032 221.325 C 135.979 221.859,137.288 225.770,137.658 226.180 C 137.863 226.408,138.000 226.297,138.000 225.904 C 138.000 225.543,137.820 225.136,137.600 225.000 C 137.380 224.864,137.192 224.448,137.182 224.076 C 137.163 223.354,136.087 220.779,136.032 221.325 M265.160 222.861 C 264.888 223.817,264.515 224.771,264.333 224.980 C 264.150 225.189,264.000 225.630,264.000 225.960 C 264.000 227.003,264.652 225.903,265.365 223.656 C 265.739 222.477,265.957 221.424,265.850 221.317 C 265.743 221.210,265.433 221.905,265.160 222.861 M138.000 227.005 C 138.000 227.565,140.179 232.000,140.453 232.000 C 140.594 232.000,140.165 230.875,139.501 229.500 C 138.207 226.821,138.000 226.477,138.000 227.005 M262.926 228.598 C 262.475 229.579,262.257 230.289,262.442 230.174 C 262.901 229.890,264.149 227.215,263.926 226.993 C 263.827 226.894,263.378 227.617,262.926 228.598 M140.832 232.677 C 140.791 233.295,142.439 236.095,142.693 235.840 C 142.800 235.733,142.533 235.141,142.101 234.523 C 141.668 233.905,141.213 233.130,141.089 232.800 C 140.965 232.470,140.849 232.415,140.832 232.677 M260.832 232.709 C 260.814 232.988,260.317 233.978,259.727 234.909 C 256.712 239.659,255.948 240.785,255.590 241.006 C 255.376 241.139,255.200 241.460,255.200 241.720 C 255.200 241.979,255.650 241.707,256.200 241.113 C 256.750 240.520,257.200 239.925,257.200 239.791 C 257.200 239.656,257.650 238.957,258.200 238.236 C 258.750 237.514,259.200 236.803,259.200 236.654 C 259.200 236.506,259.661 235.654,260.224 234.763 C 260.787 233.871,261.161 232.930,261.055 232.671 C 260.918 232.335,260.854 232.346,260.832 232.709 M142.800 236.662 C 142.800 236.806,143.250 237.514,143.800 238.236 C 144.350 238.957,144.800 239.656,144.800 239.791 C 144.800 239.925,145.250 240.520,145.800 241.113 C 146.350 241.707,146.800 241.979,146.800 241.720 C 146.800 241.460,146.624 241.139,146.410 241.006 C 146.195 240.873,145.368 239.783,144.571 238.582 C 143.189 236.501,142.800 236.079,142.800 236.662 M148.400 244.018 C 148.400 244.786,157.226 253.600,157.995 253.600 C 158.346 253.600,158.184 253.330,157.589 252.922 C 156.360 252.080,149.994 245.698,149.076 244.388 C 148.643 243.769,148.400 243.636,148.400 244.018 M253.232 243.872 C 253.196 244.409,245.914 251.876,244.411 252.916 C 243.790 253.345,243.643 253.600,244.018 253.600 C 244.912 253.600,253.738 244.594,253.480 243.945 C 253.347 243.610,253.251 243.581,253.232 243.872 M160.887 256.200 C 161.480 256.750,162.075 257.200,162.209 257.200 C 162.344 257.200,163.043 257.650,163.764 258.200 C 164.486 258.750,165.197 259.200,165.346 259.200 C 165.494 259.200,166.329 259.650,167.200 260.200 C 168.071 260.750,169.013 261.199,169.292 261.198 C 169.571 261.196,169.350 260.960,168.800 260.673 C 166.539 259.492,161.295 256.077,160.994 255.590 C 160.861 255.376,160.540 255.200,160.280 255.200 C 160.021 255.200,160.293 255.650,160.887 256.200 M241.006 255.590 C 240.705 256.077,235.461 259.492,233.200 260.673 C 232.650 260.960,232.429 261.196,232.708 261.198 C 232.987 261.199,233.929 260.750,234.800 260.200 C 235.671 259.650,236.506 259.200,236.654 259.200 C 236.803 259.200,237.514 258.750,238.236 258.200 C 238.957 257.650,239.656 257.200,239.791 257.200 C 239.925 257.200,240.520 256.750,241.113 256.200 C 241.707 255.650,241.979 255.200,241.720 255.200 C 241.460 255.200,241.139 255.376,241.006 255.590 M171.826 262.442 C 172.110 262.901,174.785 264.149,175.007 263.926 C 175.106 263.827,174.383 263.378,173.402 262.926 C 172.421 262.475,171.711 262.257,171.826 262.442 M228.400 263.019 C 227.410 263.533,226.797 263.963,227.039 263.976 C 227.622 264.008,229.923 262.848,230.216 262.375 C 230.499 261.916,230.586 261.885,228.400 263.019 M175.820 264.342 C 176.349 264.818,180.445 266.089,180.683 265.850 C 180.790 265.743,180.095 265.433,179.139 265.160 C 178.183 264.888,177.229 264.515,177.020 264.333 C 176.811 264.150,176.370 264.000,176.040 264.000 C 175.678 264.000,175.591 264.136,175.820 264.342 M224.980 264.333 C 224.771 264.515,223.817 264.888,222.861 265.160 C 221.905 265.433,221.210 265.743,221.317 265.850 C 221.424 265.957,222.477 265.739,223.656 265.365 C 225.903 264.652,227.003 264.000,225.960 264.000 C 225.630 264.000,225.189 264.150,224.980 264.333 M181.800 266.303 C 182.237 266.754,185.384 267.577,187.600 267.820 L 189.000 267.974 187.600 267.566 C 186.830 267.341,185.570 267.001,184.800 266.810 C 184.030 266.619,182.950 266.334,182.400 266.177 C 181.717 265.982,181.527 266.022,181.800 266.303 M219.083 266.251 C 218.945 266.389,218.150 266.649,217.316 266.830 C 216.482 267.010,215.170 267.341,214.400 267.566 L 213.000 267.974 214.400 267.820 C 217.571 267.472,222.058 266.000,219.947 266.000 C 219.609 266.000,219.220 266.113,219.083 266.251 M191.200 268.480 C 191.200 268.656,192.145 268.779,193.300 268.754 C 195.482 268.705,195.272 268.548,192.700 268.303 C 191.875 268.225,191.200 268.304,191.200 268.480 M208.600 268.400 L 206.600 268.674 208.700 268.737 C 209.875 268.772,210.800 268.624,210.800 268.400 C 210.800 268.180,210.755 268.028,210.700 268.063 C 210.645 268.097,209.700 268.249,208.600 268.400 M287.633 333.746 C 288.440 334.451,289.752 334.873,289.251 334.265 C 288.949 333.899,288.424 333.600,288.084 333.600 C 287.745 333.600,287.542 333.666,287.633 333.746 " stroke="none" fill="#acacac" fill-rule="evenodd"></path></g></svg>