<svg width="22" height="22" viewBox="0 0 22 22" fill="none" xmlns="http://www.w3.org/2000/svg">
<g clip-path="url(#clip0_2_467)">
<path d="M3.03718 15.8061V14.8642C2.7003 14.8642 2.38907 15.0441 2.22093 15.336C2.05279 15.6279 2.05335 15.9874 2.22238 16.2788L3.03718 15.8061ZM19.537 15.8061L20.3519 16.2788C20.5209 15.9874 20.5215 15.6279 20.3534 15.336C20.1852 15.0441 19.874 14.8642 19.537 14.8642V15.8061ZM16.9978 11.0374C16.9978 8.7276 15.6064 6.64528 13.4725 5.76143L12.7516 7.50191C14.1815 8.09422 15.1138 9.48965 15.1138 11.0374H16.9978ZM13.4725 5.76143C11.3385 4.87748 8.88223 5.36608 7.24904 6.99936L8.58118 8.3315C9.67556 7.23702 11.3216 6.9096 12.7516 7.50191L13.4725 5.76143ZM7.24904 6.99936C5.61576 8.63255 5.12716 11.0888 6.0111 13.2228L7.75158 12.5019C7.15927 11.0719 7.4867 9.42588 8.58118 8.3315L7.24904 6.99936ZM6.0111 13.2228C6.89495 15.3567 8.97727 16.7481 11.2871 16.7481V14.8642C9.73933 14.8642 8.34389 13.9318 7.75158 12.5019L6.0111 13.2228ZM11.2871 16.7481C14.441 16.7481 16.9978 14.1913 16.9978 11.0374H15.1138C15.1138 13.1509 13.4006 14.8642 11.2871 14.8642V16.7481ZM11.2872 14.8642H3.03718V16.7481H11.2872V14.8642ZM2.22238 16.2788C4.09711 19.5106 7.55085 21.5 11.2872 21.5V19.616C8.22257 19.616 5.38968 17.9843 3.85201 15.3334L2.22238 16.2788ZM11.2872 21.5C15.0234 21.5 18.4771 19.5106 20.3519 16.2788L18.7222 15.3334C17.1846 17.9843 14.3518 19.616 11.2872 19.616V21.5ZM19.537 14.8642H11.2872V16.7481H19.537V14.8642Z" fill="#212028"/>
<path d="M3.03718 15.8061V14.8642C2.7003 14.8642 2.38907 15.0441 2.22093 15.336C2.05279 15.6279 2.05335 15.9874 2.22238 16.2788L3.03718 15.8061ZM19.537 15.8061L20.3519 16.2788C20.5209 15.9874 20.5215 15.6279 20.3534 15.336C20.1852 15.0441 19.874 14.8642 19.537 14.8642V15.8061ZM16.9978 11.0374C16.9978 8.7276 15.6064 6.64528 13.4725 5.76143L12.7516 7.50191C14.1815 8.09422 15.1138 9.48965 15.1138 11.0374H16.9978ZM13.4725 5.76143C11.3385 4.87748 8.88223 5.36608 7.24904 6.99936L8.58118 8.3315C9.67556 7.23702 11.3216 6.9096 12.7516 7.50191L13.4725 5.76143ZM7.24904 6.99936C5.61576 8.63255 5.12716 11.0888 6.0111 13.2228L7.75158 12.5019C7.15927 11.0719 7.4867 9.42588 8.58118 8.3315L7.24904 6.99936ZM6.0111 13.2228C6.89495 15.3567 8.97727 16.7481 11.2871 16.7481V14.8642C9.73933 14.8642 8.34389 13.9318 7.75158 12.5019L6.0111 13.2228ZM11.2871 16.7481C14.441 16.7481 16.9978 14.1913 16.9978 11.0374H15.1138C15.1138 13.1509 13.4006 14.8642 11.2871 14.8642V16.7481ZM11.2872 14.8642H3.03718V16.7481H11.2872V14.8642ZM2.22238 16.2788C4.09711 19.5106 7.55085 21.5 11.2872 21.5V19.616C8.22257 19.616 5.38968 17.9843 3.85201 15.3334L2.22238 16.2788ZM11.2872 21.5C15.0234 21.5 18.4771 19.5106 20.3519 16.2788L18.7222 15.3334C17.1846 17.9843 14.3518 19.616 11.2872 19.616V21.5ZM19.537 14.8642H11.2872V16.7481H19.537V14.8642Z" fill="black" fill-opacity="0.2"/>
<path d="M1.75 11.0375C1.75 5.77005 6.02005 1.5 11.2875 1.5C16.5549 1.5 20.8249 5.77005 20.8249 11.0375" stroke="#212028" stroke-width="2" stroke-linecap="round" stroke-linejoin="round"/>
<path d="M1.75 11.0375C1.75 5.77005 6.02005 1.5 11.2875 1.5C16.5549 1.5 20.8249 5.77005 20.8249 11.0375" stroke="black" stroke-opacity="0.2" stroke-width="2" stroke-linecap="round" stroke-linejoin="round"/>
</g>
<defs>
<clipPath id="clip0_2_467">
<rect width="22" height="21" fill="white" transform="translate(0 0.5)"/>
</clipPath>
</defs>
</svg>
